<?xml version="1.0" encoding="UTF-8" standalone="no"?><svg xmlns="http://www.w3.org/2000/svg" xmlns:xlink="http://www.w3.org/1999/xlink" contentScriptType="application/ecmascript" contentStyleType="text/css" height="297px" preserveAspectRatio="none" style="width:1042px;height:297px;" version="1.1" viewBox="0 0 1042 297" width="1042px" zoomAndPan="magnify"><defs/><g><rect fill="#F8F8F8" height="36.2969" style="stroke: #000000; stroke-width: 1.5;" width="76" x="442.5" y="121"/><text fill="#000000" font-family="Courier" font-size="14" lengthAdjust="spacingAndGlyphs" textLength="56" x="452.5" y="143.9951">Feature</text><rect fill="#F8F8F8" height="36.2969" style="stroke: #000000; stroke-width: 1.5;" width="84" x="389.5" y="242.5"/><text fill="#000000" font-family="Courier" font-size="14" lengthAdjust="spacingAndGlyphs" textLength="64" x="399.5" y="265.4951">Optional</text><rect fill="#F8F8F8" height="36.2969" style="stroke: #000000; stroke-width: 1.5;" width="84" x="508.5" y="242.5"/><text fill="#000000" font-family="Courier" font-size="14" lengthAdjust="spacingAndGlyphs" textLength="64" x="518.5" y="265.4951">Required</text><rect fill="#F8F8F8" height="36.2969" style="stroke: #000000; stroke-width: 1.5;" width="76" x="254.5" y="121"/><text fill="#000000" font-family="Courier" font-size="14" lengthAdjust="spacingAndGlyphs" textLength="56" x="264.5" y="143.9951">Feature</text><path d="M6,126.5 L6,151.6328 A0,0 0 0 0 6,151.6328 L219,151.6328 A0,0 0 0 0 219,151.6328 L219,144.5 L254.33,139 L219,136.5 L219,136.5 L209,126.5 L6,126.5 A0,0 0 0 0 6,126.5 " fill="#ECECEC" style="stroke: #383838; stroke-width: 1.0;"/><path d="M209,126.5 L209,136.5 L219,136.5 L209,126.5 " fill="#ECECEC" style="stroke: #383838; stroke-width: 1.0;"/><text fill="#000000" font-family="Courier" font-size="13" lengthAdjust="spacingAndGlyphs" textLength="192" x="12" y="143.5669">Sub-features Combination</text><rect fill="#F8F8F8" height="36.2969" style="stroke: #000000; stroke-width: 1.5;" width="124" x="71.5" y="242.5"/><text fill="#000000" font-family="Courier" font-size="14" lengthAdjust="spacingAndGlyphs" textLength="104" x="81.5" y="265.4951">Sub Feature 1</text><rect fill="#F8F8F8" height="36.2969" style="stroke: #000000; stroke-width: 1.5;" width="124" x="230.5" y="242.5"/><text fill="#000000" font-family="Courier" font-size="14" lengthAdjust="spacingAndGlyphs" textLength="104" x="240.5" y="265.4951">Sub Feature 2</text><rect fill="#F8F8F8" height="36.2969" style="stroke: #000000; stroke-width: 1.5;" width="76" x="721.5" y="121"/><text fill="#000000" font-family="Courier" font-size="14" lengthAdjust="spacingAndGlyphs" textLength="56" x="731.5" y="143.9951">Feature</text><path d="M833,126.5 L833,135 L797.8,139 L833,143 L833,151.6328 A0,0 0 0 0 833,151.6328 L1030,151.6328 A0,0 0 0 0 1030,151.6328 L1030,136.5 L1020,126.5 L833,126.5 A0,0 0 0 0 833,126.5 " fill="#ECECEC" style="stroke: #383838; stroke-width: 1.0;"/><path d="M1020,126.5 L1020,136.5 L1030,136.5 L1020,126.5 " fill="#ECECEC" style="stroke: #383838; stroke-width: 1.0;"/><text fill="#000000" font-family="Courier" font-size="13" lengthAdjust="spacingAndGlyphs" textLength="176" x="839" y="143.5669">Exclusive Sub-features</text><rect fill="#F8F8F8" height="52.5938" style="stroke: #000000; stroke-width: 1.5;" width="116" x="852.5" y="234"/><text fill="#000000" font-family="Courier" font-size="14" lengthAdjust="spacingAndGlyphs" textLength="88" x="862.5" y="256.9951">Alternative</text><text fill="#000000" font-family="Courier" font-size="14" lengthAdjust="spacingAndGlyphs" textLength="96" x="862.5" y="273.292">SubFeature 1</text><rect fill="#F8F8F8" height="52.5938" style="stroke: #000000; stroke-width: 1.5;" width="116" x="701.5" y="234"/><text fill="#000000" font-family="Courier" font-size="14" lengthAdjust="spacingAndGlyphs" textLength="88" x="711.5" y="256.9951">Alternative</text><text fill="#000000" font-family="Courier" font-size="14" lengthAdjust="spacingAndGlyphs" textLength="96" x="711.5" y="273.292">SubFeature 2</text><rect fill="#F8F8F8" height="36.2969" style="stroke: #000000; stroke-width: 1.5;" width="76" x="442.5" y="8"/><text fill="#000000" font-family="Courier" font-size="14" lengthAdjust="spacingAndGlyphs" textLength="56" x="452.5" y="30.9951">Product</text><path d="M473.48,157.12 C464.78,178.33 449.96,214.49 440.45,237.67 " fill="none" id="A-&gt;B" style="stroke: #383838; stroke-width: 1.0;"/><ellipse cx="440.7945" cy="236.8619" fill="#FFFFFF" rx="6" ry="6" style="stroke: #383838; stroke-width: 1.5;"/><path d="M490.53,157.12 C503,178.42 524.31,214.79 537.88,237.96 " fill="none" id="A-&gt;C" style="stroke: #383838; stroke-width: 1.0;"/><ellipse cx="537.4561" cy="237.2336" fill="#383838" rx="6" ry="6" style="stroke: #383838; stroke-width: 1.5;"/><path d="M259.04,165.15 C228.16,188.35 183.14,222.19 156.24,242.41 " fill="none" id="E&lt;-F" style="stroke: #383838; stroke-width: 1.0;"/><polygon fill="#383838" points="269.72,157.12,262.5204,157.5263,260.1263,164.3284,267.326,163.9221,269.72,157.12" style="stroke: #383838; stroke-width: 1.0;"/><path d="M292.5,170.18 C292.5,193.04 292.5,223.61 292.5,242.41 " fill="none" id="E&lt;-G" style="stroke: #383838; stroke-width: 1.0;"/><polygon fill="#383838" points="292.5,157.12,288.5,163.12,292.5,169.12,296.5,163.12,292.5,157.12" style="stroke: #383838; stroke-width: 1.0;"/><path d="M791.38,165.23 C816.86,185.4 852.44,213.55 878.07,233.83 " fill="none" id="H&lt;-I" style="stroke: #383838; stroke-width: 1.0;"/><polygon fill="#FFFFFF" points="781.13,157.12,783.3529,163.9799,790.5402,164.5664,788.3172,157.7065,781.13,157.12" style="stroke: #383838; stroke-width: 1.0;"/><path d="M759.5,170.19 C759.5,189.75 759.5,214.96 759.5,233.61 " fill="none" id="H&lt;-J" style="stroke: #383838; stroke-width: 1.0;"/><polygon fill="#FFFFFF" points="759.5,157.12,755.5,163.12,759.5,169.12,763.5,163.12,759.5,157.12" style="stroke: #383838; stroke-width: 1.0;"/><path d="M176.58,242.41 C237.53,218.02 345.52,179.53 381.5,197 C399,205.5 412.21,223.42 420.65,238.06 " fill="none" id="F-&gt;B" style="stroke: #383838; stroke-width: 1.0; stroke-dasharray: 1.0,3.0;"/><polygon fill="#383838" points="423.11,242.49,422.2358,232.68,420.6818,238.1192,415.2426,236.5652,423.11,242.49" style="stroke: #383838; stroke-width: 1.0;"/><text fill="#000000" font-family="Courier" font-size="13" lengthAdjust="spacingAndGlyphs" textLength="56" x="324.5" y="200.0669">require</text><path d="M597.77,260.5 C626.89,260.5 664.59,260.5 696.26,260.5 " fill="none" id="C-J" style="stroke: #383838; stroke-width: 1.0; stroke-dasharray: 1.0,3.0;"/><polygon fill="#383838" points="701.29,260.5,692.29,256.5,696.29,260.5,692.29,264.5,701.29,260.5" style="stroke: #383838; stroke-width: 1.0;"/><polygon fill="#383838" points="592.54,260.5,601.54,264.5,597.54,260.5,601.54,256.5,592.54,260.5" style="stroke: #383838; stroke-width: 1.0;"/><text fill="#000000" font-family="Courier" font-size="13" lengthAdjust="spacingAndGlyphs" textLength="72" x="611" y="253.5669">exclusive</text><path d="M480.5,44.34 C480.5,63.57 480.5,94.63 480.5,115.66 " fill="none" id="R-&gt;A" style="stroke: #383838; stroke-width: 1.0;"/><ellipse cx="480.5" cy="114.78" fill="#FFFFFF" rx="6" ry="6" style="stroke: #383838; stroke-width: 1.5;"/><path d="M451.54,44.1 C417.73,64.06 361.9,97.03 326.18,118.11 " fill="none" id="R-&gt;E" style="stroke: #383838; stroke-width: 1.0;"/><ellipse cx="326.6645" cy="117.8259" fill="#FFFFFF" rx="6" ry="6" style="stroke: #383838; stroke-width: 1.5;"/><text fill="#000000" font-family="Courier" font-size="13" lengthAdjust="spacingAndGlyphs" textLength="64" x="398.5" y="87.0669">optional</text><path d="M518.71,42.2 C570.43,62.78 662.44,99.39 716.52,120.9 " fill="none" id="R-&gt;H" style="stroke: #383838; stroke-width: 1.0;"/><ellipse cx="715.7391" cy="120.5717" fill="#383838" rx="6" ry="6" style="stroke: #383838; stroke-width: 1.5;"/><text fill="#000000" font-family="Courier" font-size="13" lengthAdjust="spacingAndGlyphs" textLength="64" x="637.5" y="87.0669">required</text></g></svg>