<?xml version="1.0" encoding="UTF-8" standalone="no"?><svg xmlns="http://www.w3.org/2000/svg" xmlns:xlink="http://www.w3.org/1999/xlink" contentScriptType="application/ecmascript" contentStyleType="text/css" height="122px" preserveAspectRatio="none" style="width:653px;height:122px;" version="1.1" viewBox="0 0 653 122" width="653px" zoomAndPan="magnify"><defs/><g><rect fill="#FFFFFF" height="87" style="stroke: #000000; stroke-width: 1.5;" width="620" x="22" y="24"/><text fill="#000000" font-family="sans-serif" font-size="14" font-weight="bold" lengthAdjust="spacingAndGlyphs" textLength="272" x="196" y="39.5352">When a user connects to the platform</text><rect fill="#F8F8F8" height="36.4883" style="stroke: #000000; stroke-width: 1.5;" width="51" x="38.5" y="59"/><text fill="#000000" font-family="sans-serif" font-size="14" lengthAdjust="spacingAndGlyphs" textLength="31" x="48.5" y="82.5352">User</text><rect fill="#F8F8F8" height="36.4883" style="stroke: #000000; stroke-width: 1.5;" width="204" x="422" y="59"/><text fill="#000000" font-family="sans-serif" font-size="14" lengthAdjust="spacingAndGlyphs" textLength="184" x="432" y="82.5352">Design consistency metrics</text><rect fill="#F8F8F8" height="36.4883" style="stroke: #383838; stroke-width: 1.5;" width="64" x="265" y="59"/><rect fill="#F8F8F8" height="5" style="stroke: #383838; stroke-width: 1.5;" width="10" x="260" y="64"/><rect fill="#F8F8F8" height="5" style="stroke: #383838; stroke-width: 1.5;" width="10" x="260" y="85.4883"/><text fill="#000000" font-family="sans-serif" font-size="14" lengthAdjust="spacingAndGlyphs" textLength="44" x="275" y="82.5352">Device</text><path d="M89.83,77 C131.09,77 212.09,77 259.67,77 " fill="none" id="Source-&gt;Device" style="stroke: #383838; stroke-width: 1.0;"/><polygon fill="#383838" points="264.73,77,255.73,73,259.73,77,255.73,81,264.73,77" style="stroke: #383838; stroke-width: 1.0;"/><text fill="#000000" font-family="sans-serif" font-size="13" lengthAdjust="spacingAndGlyphs" textLength="139" x="107.75" y="70.5684">Connects through any</text><path d="M329.04,77 C352.13,77 384.71,77 416.65,77 " fill="none" id="Device-&gt;Measure" style="stroke: #383838; stroke-width: 1.0;"/><polygon fill="#383838" points="421.77,77,412.77,73,416.77,77,412.77,81,421.77,77" style="stroke: #383838; stroke-width: 1.0;"/><text fill="#000000" font-family="sans-serif" font-size="13" lengthAdjust="spacingAndGlyphs" textLength="56" x="347.5" y="70.5684">Visualize</text></g></svg>