<?xml version="1.0" encoding="UTF-8" standalone="no"?><svg xmlns="http://www.w3.org/2000/svg" xmlns:xlink="http://www.w3.org/1999/xlink" contentScriptType="application/ecmascript" contentStyleType="text/css" height="218px" preserveAspectRatio="none" style="width:206px;height:218px;" version="1.1" viewBox="0 0 206 218" width="206px" zoomAndPan="magnify"><defs/><g><rect fill="#FFFFFF" height="183" style="stroke: #000000; stroke-width: 1.5;" width="68" x="22" y="24"/><rect fill="#FFFFFF" height="10" style="stroke: #000000; stroke-width: 1.5;" width="15" x="70" y="29"/><rect fill="#FFFFFF" height="2" style="stroke: #000000; stroke-width: 1.5;" width="4" x="68" y="31"/><rect fill="#FFFFFF" height="2" style="stroke: #000000; stroke-width: 1.5;" width="4" x="68" y="35"/><text fill="#000000" font-family="Courier" font-size="14" font-weight="bold" lengthAdjust="spacingAndGlyphs" textLength="8" x="52" y="49.9951">C</text><rect fill="#F8F8F8" height="36.2969" style="stroke: #383838; stroke-width: 1.5;" width="28" x="42" y="59"/><rect fill="#F8F8F8" height="5" style="stroke: #383838; stroke-width: 1.5;" width="10" x="37" y="64"/><rect fill="#F8F8F8" height="5" style="stroke: #383838; stroke-width: 1.5;" width="10" x="37" y="85.2969"/><text fill="#000000" font-family="Courier" font-size="14" lengthAdjust="spacingAndGlyphs" textLength="8" x="52" y="81.9951">S</text><rect fill="#F8F8F8" height="36.2969" style="stroke: #383838; stroke-width: 1.5;" width="36" x="38" y="155"/><rect fill="#F8F8F8" height="5" style="stroke: #383838; stroke-width: 1.5;" width="10" x="33" y="160"/><rect fill="#F8F8F8" height="5" style="stroke: #383838; stroke-width: 1.5;" width="10" x="33" y="181.2969"/><text fill="#000000" font-family="Courier" font-size="14" lengthAdjust="spacingAndGlyphs" textLength="16" x="48" y="177.9951">S2</text><ellipse cx="115" cy="77" fill="#F8F8F8" rx="8" ry="8" style="stroke: #383838; stroke-width: 2.0;"/><text fill="#000000" font-family="Courier" font-size="14" lengthAdjust="spacingAndGlyphs" textLength="8" x="111" y="106.9951">I</text><rect fill="#F8F8F8" height="36.2969" style="stroke: #383838; stroke-width: 1.5;" width="36" x="159" y="59"/><rect fill="#F8F8F8" height="5" style="stroke: #383838; stroke-width: 1.5;" width="10" x="154" y="64"/><rect fill="#F8F8F8" height="5" style="stroke: #383838; stroke-width: 1.5;" width="10" x="154" y="85.2969"/><text fill="#000000" font-family="Courier" font-size="14" lengthAdjust="spacingAndGlyphs" textLength="16" x="169" y="81.9951">C2</text><path d="M56,95.24 C56,112.2 56,137.95 56,154.87 " fill="none" id="S-S2" style="stroke: #383838; stroke-width: 1.0;"/><path d="M63.0711,117.9989 A10,10 0 0 0 48.9289 117.9989" fill="#FFFFFF" style="stroke: #383838; stroke-width: 1.5;"/><ellipse cx="56" cy="125.07" fill="#FFFFFF" rx="6" ry="6" style="stroke: #383838; stroke-width: 1.5;"/><path d="M70.29,77 C82.17,77 94.04,77 105.92,77 " fill="none" id="S-I" style="stroke: #383838; stroke-width: 1.0;"/><path d="M134.22,77 C142.43,77 150.64,77 158.85,77 " fill="none" id="I&lt;-C2" style="stroke: #383838; stroke-width: 1.0;"/><path d="M127.2782,85.4572 A9,9 0 0 0 127.2782 68.5428" fill="none" style="stroke: #383838; stroke-width: 1.5;"/></g></svg>