<?xml version="1.0" encoding="UTF-8" standalone="no"?><svg xmlns="http://www.w3.org/2000/svg" xmlns:xlink="http://www.w3.org/1999/xlink" contentScriptType="application/ecmascript" contentStyleType="text/css" height="494px" preserveAspectRatio="none" style="width:2672px;height:494px;" version="1.1" viewBox="0 0 2672 494" width="2672px" zoomAndPan="magnify"><defs/><g><rect fill="#0AA60F" height="36.2969" style="stroke: #000000; stroke-width: 1.5;" width="92" x="2561" y="8"/><text fill="#000000" font-family="Courier" font-size="14" lengthAdjust="spacingAndGlyphs" textLength="72" x="2571" y="30.9951">Exclusive</text><rect fill="#FF5733" height="36.2969" style="stroke: #000000; stroke-width: 1.5;" width="108" x="2553" y="105"/><text fill="#000000" font-family="Courier" font-size="14" lengthAdjust="spacingAndGlyphs" textLength="88" x="2563" y="127.9951">Competition</text><rect fill="#FEFECE" height="36.2969" style="stroke: #000000; stroke-width: 1.5;" width="52" x="2581" y="218"/><text fill="#000000" font-family="Courier" font-size="14" lengthAdjust="spacingAndGlyphs" textLength="32" x="2591" y="240.9951">Both</text><rect fill="#FEFECE" height="36.2969" style="stroke: #000000; stroke-width: 1.5;" width="92" x="1484" y="8"/><text fill="#000000" font-family="Courier" font-size="14" lengthAdjust="spacingAndGlyphs" textLength="72" x="1494" y="30.9951">FruitDash</text><rect fill="#FEFECE" height="36.2969" style="stroke: #000000; stroke-width: 1.5;" width="132" x="466" y="105"/><text fill="#000000" font-family="Courier" font-size="14" lengthAdjust="spacingAndGlyphs" textLength="112" x="476" y="127.9951">Authentication</text><rect fill="#FEFECE" height="36.2969" style="stroke: #000000; stroke-width: 1.5;" width="124" x="1897" y="105"/><text fill="#000000" font-family="Courier" font-size="14" lengthAdjust="spacingAndGlyphs" textLength="104" x="1907" y="127.9951">Authorization</text><rect fill="#FEFECE" height="36.2969" style="stroke: #000000; stroke-width: 1.5;" width="92" x="1484" y="105"/><text fill="#000000" font-family="Courier" font-size="14" lengthAdjust="spacingAndGlyphs" textLength="72" x="1494" y="127.9951">Home Page</text><rect fill="#0AA60F" height="36.2969" style="stroke: #000000; stroke-width: 1.5;" width="140" x="2320" y="105"/><text fill="#000000" font-family="Courier" font-size="14" lengthAdjust="spacingAndGlyphs" textLength="120" x="2330" y="127.9951">Graph Extractor</text><rect fill="#FF5733" height="36.2969" style="stroke: #000000; stroke-width: 1.5;" width="252" x="1184" y="105"/><text fill="#000000" font-family="Courier" font-size="14" lengthAdjust="spacingAndGlyphs" textLength="232" x="1194" y="127.9951">Natural Language Based Search</text><rect fill="#FEFECE" height="36.2969" style="stroke: #000000; stroke-width: 1.5;" width="84" x="490" y="218"/><text fill="#000000" font-family="Courier" font-size="14" lengthAdjust="spacingAndGlyphs" textLength="64" x="500" y="240.9951">1-factor</text><rect fill="#FEFECE" height="36.2969" style="stroke: #000000; stroke-width: 1.5;" width="92" x="305" y="218"/><text fill="#000000" font-family="Courier" font-size="14" lengthAdjust="spacingAndGlyphs" textLength="72" x="315" y="240.9951">2-factors</text><rect fill="#FEFECE" height="36.2969" style="stroke: #000000; stroke-width: 1.5;" width="52" x="2275" y="218"/><text fill="#000000" font-family="Courier" font-size="14" lengthAdjust="spacingAndGlyphs" textLength="32" x="2285" y="240.9951">Role</text><rect fill="#FEFECE" height="36.2969" style="stroke: #000000; stroke-width: 1.5;" width="68" x="1276" y="218"/><text fill="#000000" font-family="Courier" font-size="14" lengthAdjust="spacingAndGlyphs" textLength="48" x="1286" y="240.9951">Search</text><rect fill="#FEFECE" height="36.2969" style="stroke: #000000; stroke-width: 1.5;" width="132" x="1804" y="218"/><text fill="#000000" font-family="Courier" font-size="14" lengthAdjust="spacingAndGlyphs" textLength="112" x="1814" y="240.9951">Data Displayer</text><rect fill="#FEFECE" height="36.2969" style="stroke: #000000; stroke-width: 1.5;" width="132" x="1379" y="218"/><text fill="#000000" font-family="Courier" font-size="14" lengthAdjust="spacingAndGlyphs" textLength="112" x="1389" y="240.9951">Data Extractor</text><rect fill="#FEFECE" height="36.2969" style="stroke: #000000; stroke-width: 1.5;" width="44" x="1546" y="218"/><text fill="#000000" font-family="Courier" font-size="14" lengthAdjust="spacingAndGlyphs" textLength="24" x="1556" y="240.9951">KPI</text><rect fill="#FEFECE" height="36.2969" style="stroke: #000000; stroke-width: 1.5;" width="132" x="2398" y="218"/><text fill="#000000" font-family="Courier" font-size="14" lengthAdjust="spacingAndGlyphs" textLength="112" x="2408" y="240.9951">Graph provider</text><rect fill="#FEFECE" height="36.2969" style="stroke: #000000; stroke-width: 1.5;" width="60" x="980" y="218"/><text fill="#000000" font-family="Courier" font-size="14" lengthAdjust="spacingAndGlyphs" textLength="40" x="990" y="240.9951">Query</text><rect fill="#FEFECE" height="36.2969" style="stroke: #000000; stroke-width: 1.5;" width="84" x="459" y="315"/><text fill="#000000" font-family="Courier" font-size="14" lengthAdjust="spacingAndGlyphs" textLength="64" x="469" y="337.9951">Password</text><rect fill="#FEFECE" height="36.2969" style="stroke: #000000; stroke-width: 1.5;" width="100" x="578" y="315"/><text fill="#000000" font-family="Courier" font-size="14" lengthAdjust="spacingAndGlyphs" textLength="80" x="588" y="337.9951">Biometrics</text><rect fill="#FEFECE" height="36.2969" style="stroke: #000000; stroke-width: 1.5;" width="84" x="340" y="315"/><text fill="#000000" font-family="Courier" font-size="14" lengthAdjust="spacingAndGlyphs" textLength="64" x="350" y="337.9951">SMS Code</text><rect fill="#FEFECE" height="36.2969" style="stroke: #000000; stroke-width: 1.5;" width="100" x="6" y="315"/><text fill="#000000" font-family="Courier" font-size="14" lengthAdjust="spacingAndGlyphs" textLength="80" x="16" y="337.9951">Email Code</text><rect fill="#FEFECE" height="36.2969" style="stroke: #000000; stroke-width: 1.5;" width="164" x="141" y="315"/><text fill="#000000" font-family="Courier" font-size="14" lengthAdjust="spacingAndGlyphs" textLength="144" x="151" y="337.9951">Security Questions</text><rect fill="#FEFECE" height="36.2969" style="stroke: #000000; stroke-width: 1.5;" width="116" x="1812" y="315"/><text fill="#000000" font-family="Courier" font-size="14" lengthAdjust="spacingAndGlyphs" textLength="96" x="1822" y="337.9951">Tabular data</text><rect fill="#FEFECE" height="36.2969" style="stroke: #000000; stroke-width: 1.5;" width="132" x="2029" y="315"/><text fill="#000000" font-family="Courier" font-size="14" lengthAdjust="spacingAndGlyphs" textLength="112" x="2039" y="337.9951">Visualizations</text><rect fill="#FEFECE" height="36.2969" style="stroke: #000000; stroke-width: 1.5;" width="76" x="2196" y="315"/><text fill="#000000" font-family="Courier" font-size="14" lengthAdjust="spacingAndGlyphs" textLength="56" x="2206" y="337.9951">Analyst</text><rect fill="#FEFECE" height="36.2969" style="stroke: #000000; stroke-width: 1.5;" width="76" x="2466" y="315"/><text fill="#000000" font-family="Courier" font-size="14" lengthAdjust="spacingAndGlyphs" textLength="56" x="2476" y="337.9951">Manager</text><rect fill="#FEFECE" height="36.2969" style="stroke: #000000; stroke-width: 1.5;" width="124" x="2307" y="315"/><text fill="#000000" font-family="Courier" font-size="14" lengthAdjust="spacingAndGlyphs" textLength="104" x="2317" y="337.9951">Administrator</text><rect fill="#FEFECE" height="36.2969" style="stroke: #000000; stroke-width: 1.5;" width="100" x="960" y="315"/><text fill="#000000" font-family="Courier" font-size="14" lengthAdjust="spacingAndGlyphs" textLength="80" x="970" y="337.9951">User input</text><rect fill="#FEFECE" height="36.2969" style="stroke: #000000; stroke-width: 1.5;" width="212" x="713" y="315"/><text fill="#000000" font-family="Courier" font-size="14" lengthAdjust="spacingAndGlyphs" textLength="192" x="723" y="337.9951">App generated suggestion</text><rect fill="#FEFECE" height="36.2969" style="stroke: #000000; stroke-width: 1.5;" width="124" x="2531" y="381"/><text fill="#000000" font-family="Courier" font-size="14" lengthAdjust="spacingAndGlyphs" textLength="104" x="2541" y="403.9951">User selected</text><rect fill="#FEFECE" height="36.2969" style="stroke: #000000; stroke-width: 1.5;" width="92" x="2511" y="447"/><text fill="#000000" font-family="Courier" font-size="14" lengthAdjust="spacingAndGlyphs" textLength="72" x="2521" y="469.9951">Approvals</text><rect fill="#FEFECE" height="36.2969" style="stroke: #000000; stroke-width: 1.5;" width="140" x="2299" y="447"/><text fill="#000000" font-family="Courier" font-size="14" lengthAdjust="spacingAndGlyphs" textLength="120" x="2309" y="469.9951">Role assignment</text><rect fill="#FEFECE" height="36.2969" style="stroke: #000000; stroke-width: 1.5;" width="84" x="1709" y="447"/><text fill="#000000" font-family="Courier" font-size="14" lengthAdjust="spacingAndGlyphs" textLength="64" x="1719" y="469.9951">Products</text><rect fill="#FEFECE" height="36.2969" style="stroke: #000000; stroke-width: 1.5;" width="84" x="1828" y="447"/><text fill="#000000" font-family="Courier" font-size="14" lengthAdjust="spacingAndGlyphs" textLength="64" x="1838" y="469.9951">Logistic</text><rect fill="#FEFECE" height="36.2969" style="stroke: #000000; stroke-width: 1.5;" width="76" x="1947" y="447"/><text fill="#000000" font-family="Courier" font-size="14" lengthAdjust="spacingAndGlyphs" textLength="56" x="1957" y="469.9951">Clients</text><rect fill="#FEFECE" height="36.2969" style="stroke: #000000; stroke-width: 1.5;" width="204" x="1350" y="315"/><text fill="#000000" font-family="Courier" font-size="14" lengthAdjust="spacingAndGlyphs" textLength="184" x="1360" y="337.9951">Most profitable clients</text><rect fill="#FEFECE" height="36.2969" style="stroke: #000000; stroke-width: 1.5;" width="188" x="1589" y="315"/><text fill="#000000" font-family="Courier" font-size="14" lengthAdjust="spacingAndGlyphs" textLength="168" x="1599" y="337.9951">Most ordered products</text><rect fill="#FEFECE" height="36.2969" style="stroke: #000000; stroke-width: 1.5;" width="220" x="1095" y="315"/><text fill="#000000" font-family="Courier" font-size="14" lengthAdjust="spacingAndGlyphs" textLength="200" x="1105" y="337.9951">Running quaterly revenues</text><path d="M2607,57.71 C2607,73.27 2607,91.59 2607,104.69 " fill="none" id="EXCL&lt;-COMP" style="stroke: #A80036; stroke-width: 1.0;"/><polygon fill="#A80036" points="2607,44.42,2603,50.42,2607,56.42,2611,50.42,2607,44.42" style="stroke: #A80036; stroke-width: 1.0;"/><path d="M2607,154.36 C2607,174.75 2607,200.88 2607,217.78 " fill="none" id="COMP&lt;-BOTH" style="stroke: #A80036; stroke-width: 1.0;"/><polygon fill="#A80036" points="2607,141.34,2603,147.34,2607,153.34,2611,147.34,2607,141.34" style="stroke: #A80036; stroke-width: 1.0;"/><path d="M1483.87,31.39 C1326.66,46.36 810.66,95.47 611.45,114.44 " fill="none" id="FD-&gt;AUTHC" style="stroke: #A80036; stroke-width: 1.0;"/><polygon fill="#A80036" points="598.23,115.7,604.5849,119.1082,610.1751,114.553,603.8202,111.1448,598.23,115.7" style="stroke: #A80036; stroke-width: 1.0;"/><path d="M1576.32,37.26 C1650.07,53.59 1794.9,85.66 1883.7,105.33 " fill="none" id="FD-&gt;AUTHR" style="stroke: #A80036; stroke-width: 1.0;"/><polygon fill="#A80036" points="1896.65,108.19,1891.6587,102.9855,1884.9348,105.591,1889.9261,110.7956,1896.65,108.19" style="stroke: #A80036; stroke-width: 1.0;"/><path d="M1530,44.42 C1530,57.55 1530,75.88 1530,91.42 " fill="none" id="FD-&gt;HP" style="stroke: #A80036; stroke-width: 1.0;"/><polygon fill="#A80036" points="1530,104.69,1534,98.69,1530,92.69,1526,98.69,1530,104.69" style="stroke: #A80036; stroke-width: 1.0;"/><path d="M1576.24,32.11 C1717.02,47.66 2141.36,94.53 2314.85,113.7 " fill="none" id="FD-&gt;GE" style="stroke: #A80036; stroke-width: 1.0;"/><ellipse cx="2313.9455" cy="113.6087" fill="#FFFFFF" rx="6" ry="6" style="stroke: #A80036; stroke-width: 1.5;"/><path d="M1490.41,44.09 C1452.14,60.62 1394.23,85.63 1354.4,102.83 " fill="none" id="FD-&gt;NLBS" style="stroke: #A80036; stroke-width: 1.0;"/><ellipse cx="1355.1487" cy="102.502" fill="#FFFFFF" rx="6" ry="6" style="stroke: #A80036; stroke-width: 1.5;"/><path d="M532,154.36 C532,174.75 532,200.88 532,217.78 " fill="none" id="AUTHC&lt;-1F" style="stroke: #A80036; stroke-width: 1.0;"/><polygon fill="#A80036" points="532,141.34,528,147.34,532,153.34,536,147.34,532,141.34" style="stroke: #A80036; stroke-width: 1.0;"/><path d="M492.64,148.14 C458.3,169.2 409.36,199.21 378.92,217.88 " fill="none" id="AUTHC&lt;-2F" style="stroke: #A80036; stroke-width: 1.0;"/><polygon fill="#A80036" points="504.12,141.1,496.914,140.8276,493.8911,147.3745,501.097,147.6469,504.12,141.1" style="stroke: #A80036; stroke-width: 1.0;"/><path d="M397.14,236 C423.95,236 457.65,236 484.66,236 " fill="none" id="2F-&gt;1F" style="stroke: #A80036; stroke-width: 1.0; stroke-dasharray: 1.0,3.0;"/><polygon fill="#A80036" points="489.97,236,480.97,232,484.97,236,480.97,240,489.97,236" style="stroke: #A80036; stroke-width: 1.0;"/><text fill="#000000" font-family="Courier" font-size="13" lengthAdjust="spacingAndGlyphs" textLength="56" x="415.5" y="229.0669">require</text><path d="M2024.36,145.21 C2100.15,169.81 2221.45,209.18 2274.6,226.43 " fill="none" id="AUTHR&lt;-ROLE" style="stroke: #A80036; stroke-width: 1.0;"/><polygon fill="#A80036" points="2011.69,141.1,2016.1606,146.7581,2023.1029,144.8075,2018.6323,139.1495,2011.69,141.1" style="stroke: #A80036; stroke-width: 1.0;"/><path d="M1491.39,143.48 C1449.65,164.54 1383.76,197.79 1343.93,217.88 " fill="none" id="HP&lt;-SEARCH" style="stroke: #A80036; stroke-width: 1.0;"/><ellipse cx="1490.7537" cy="143.8038" fill="#FFFFFF" rx="6" ry="6" style="stroke: #A80036; stroke-width: 1.5;"/><path d="M1540.19,153.77 C1547.2,174.25 1556.26,200.72 1562.1,217.78 " fill="none" id="HP&lt;-KPI" style="stroke: #A80036; stroke-width: 1.0;"/><polygon fill="#A80036" points="1535.94,141.34,1534.1007,148.3126,1539.8295,152.6922,1541.6688,145.7196,1535.94,141.34" style="stroke: #A80036; stroke-width: 1.0;"/><path d="M1588.58,143.12 C1653.1,164.19 1755.89,197.75 1817.76,217.95 " fill="none" id="HP&lt;-DD" style="stroke: #A80036; stroke-width: 1.0;"/><polygon fill="#A80036" points="1576.21,139.09,1580.6707,144.7559,1587.6164,142.8175,1583.1557,137.1516,1576.21,139.09" style="stroke: #A80036; stroke-width: 1.0;"/><path d="M1508.75,151.75 C1492.88,172.47 1471.69,200.15 1458.19,217.78 " fill="none" id="HP&lt;-DE" style="stroke: #A80036; stroke-width: 1.0;"/><polygon fill="#A80036" points="1516.72,141.34,1509.8976,143.6756,1509.4296,150.8715,1516.252,148.5359,1516.72,141.34" style="stroke: #A80036; stroke-width: 1.0;"/><path d="M1310,141.34 C1310,160.57 1310,191.63 1310,212.66 " fill="none" id="NLBS-&gt;SEARCH" style="stroke: #A80036; stroke-width: 1.0; stroke-dasharray: 1.0,3.0;"/><polygon fill="#A80036" points="1310,217.78,1314,208.78,1310,212.78,1306,208.78,1310,217.78" style="stroke: #A80036; stroke-width: 1.0;"/><text fill="#000000" font-family="Courier" font-size="13" lengthAdjust="spacingAndGlyphs" textLength="64" x="1311" y="184.0669">requires</text><path d="M2408.88,152.32 C2422.65,172.98 2440.87,200.31 2452.52,217.78 " fill="none" id="GE&lt;-GP" style="stroke: #A80036; stroke-width: 1.0;"/><polygon fill="#A80036" points="2401.56,141.34,2401.5556,148.5511,2408.2103,151.3287,2408.2147,144.1176,2401.56,141.34" style="stroke: #A80036; stroke-width: 1.0;"/><path d="M1251.22,145.75 C1187.87,169.19 1089.54,205.57 1040.28,223.79 " fill="none" id="NLBS&lt;-QUE" style="stroke: #A80036; stroke-width: 1.0;"/><polygon fill="#A80036" points="1263.78,141.1,1256.7648,139.4308,1252.5257,145.2643,1259.541,146.9336,1263.78,141.1" style="stroke: #A80036; stroke-width: 1.0;"/><path d="M522.13,267.24 C517.02,282.9 510.97,301.46 506.65,314.69 " fill="none" id="1F&lt;-PWD" style="stroke: #A80036; stroke-width: 1.0;"/><polygon fill="#FFFFFF" points="526.31,254.42,520.6473,258.8847,522.5905,265.829,528.2533,261.3643,526.31,254.42" style="stroke: #A80036; stroke-width: 1.0;"/><path d="M559.24,263.96 C575.7,280.25 596.19,300.52 610.5,314.69 " fill="none" id="1F&lt;-BIO" style="stroke: #A80036; stroke-width: 1.0;"/><polygon fill="#FFFFFF" points="549.61,254.42,551.0627,261.4833,558.1413,262.859,556.6887,255.7957,549.61,254.42" style="stroke: #A80036; stroke-width: 1.0;"/><path d="M360.87,267.24 C365.98,282.9 372.03,301.46 376.35,314.69 " fill="none" id="2F&lt;-SMS" style="stroke: #A80036; stroke-width: 1.0;"/><polygon fill="#FFFFFF" points="356.69,254.42,354.7467,261.3643,360.4095,265.829,362.3527,258.8847,356.69,254.42" style="stroke: #A80036; stroke-width: 1.0;"/><path d="M292.34,255.89 C237.91,273.42 157.75,299.23 106.21,315.83 " fill="none" id="2F&lt;-EMAIL" style="stroke: #A80036; stroke-width: 1.0;"/><polygon fill="#FFFFFF" points="304.91,251.84,297.9725,249.8726,293.4881,255.5198,300.4257,257.4872,304.91,251.84" style="stroke: #A80036; stroke-width: 1.0;"/><path d="M317.37,261.96 C294.89,278.65 265.89,300.17 246.01,314.92 " fill="none" id="2F&lt;-SQ" style="stroke: #A80036; stroke-width: 1.0;"/><polygon fill="#FFFFFF" points="327.82,254.2,320.6179,254.5604,318.1806,261.3471,325.3827,260.9867,327.82,254.2" style="stroke: #A80036; stroke-width: 1.0;"/><path d="M1870,267.71 C1870,283.27 1870,301.59 1870,314.69 " fill="none" id="DD&lt;-LD" style="stroke: #A80036; stroke-width: 1.0;"/><polygon fill="#A80036" points="1870,254.42,1866,260.42,1870,266.42,1874,260.42,1870,254.42" style="stroke: #A80036; stroke-width: 1.0;"/><path d="M1922.48,259.16 C1962.75,276.16 2017.52,299.29 2054.46,314.88 " fill="none" id="DD&lt;-VIS" style="stroke: #A80036; stroke-width: 1.0;"/><polygon fill="#A80036" points="1910.49,254.09,1914.4605,260.1095,1921.5442,258.7597,1917.5736,252.7401,1910.49,254.09" style="stroke: #A80036; stroke-width: 1.0;"/><path d="M1928.24,333 C1957.28,333 1992.68,333 2023.38,333 " fill="none" id="LD-&gt;VIS" style="stroke: #A80036; stroke-width: 1.0; stroke-dasharray: 1.0,3.0;"/><polygon fill="#A80036" points="2028.65,333,2019.6615,328.9743,2023.65,332.9857,2019.6386,336.9743,2028.65,333" style="stroke: #A80036; stroke-width: 1.0;"/><text fill="#000000" font-family="Courier" font-size="13" lengthAdjust="spacingAndGlyphs" textLength="64" x="1946.5" y="326.0669">requires</text><path d="M2281,265.35 C2269.69,281.39 2255.92,300.92 2246.21,314.69 " fill="none" id="ROLE&lt;-ANA" style="stroke: #A80036; stroke-width: 1.0;"/><polygon fill="#FFFFFF" points="2288.71,254.42,2281.9848,257.0222,2281.8002,264.2309,2288.5254,261.6287,2288.71,254.42" style="stroke: #A80036; stroke-width: 1.0;"/><path d="M2339.29,254.92 C2376.04,272.12 2431.14,297.9 2467.33,314.84 " fill="none" id="ROLE&lt;-MAN" style="stroke: #A80036; stroke-width: 1.0;"/><polygon fill="#FFFFFF" points="2327.12,249.23,2330.8594,255.3958,2337.9891,254.3154,2334.2497,248.1497,2327.12,249.23" style="stroke: #A80036; stroke-width: 1.0;"/><path d="M2321.29,265.35 C2332.77,281.39 2346.76,300.92 2356.61,314.69 " fill="none" id="ROLE&lt;-ADMIN" style="stroke: #A80036; stroke-width: 1.0;"/><polygon fill="#FFFFFF" points="2313.47,254.42,2313.7053,261.6273,2320.4486,264.1821,2320.2133,256.9749,2313.47,254.42" style="stroke: #A80036; stroke-width: 1.0;"/><path d="M1010,267.71 C1010,283.27 1010,301.59 1010,314.69 " fill="none" id="QUE&lt;-UI" style="stroke: #A80036; stroke-width: 1.0;"/><polygon fill="#A80036" points="1010,254.42,1006,260.42,1010,266.42,1014,260.42,1010,254.42" style="stroke: #A80036; stroke-width: 1.0;"/><path d="M967.73,258.03 C933.32,275.14 885.38,298.99 853.32,314.93 " fill="none" id="QUE&lt;-AGS" style="stroke: #A80036; stroke-width: 1.0;"/><polygon fill="#A80036" points="979.74,252.05,972.5868,251.138,968.9937,257.3902,976.1469,258.3022,979.74,252.05" style="stroke: #A80036; stroke-width: 1.0;"/><path d="M2502.5,261.79 C2521.52,275.6 2543.63,294.19 2559,315 C2573.99,335.29 2583.62,363.14 2588.68,380.85 " fill="none" id="GP&lt;-US" style="stroke: #A80036; stroke-width: 1.0;"/><polygon fill="#A80036" points="2491.73,254.24,2494.3425,260.9612,2501.5515,261.1348,2498.939,254.4136,2491.73,254.24" style="stroke: #A80036; stroke-width: 1.0;"/><path d="M2510.04,364.03 C2513.84,380.14 2519.47,400.1 2527,417 C2531.65,427.43 2538.39,438.23 2544.3,446.85 " fill="none" id="MAN&lt;-APPR" style="stroke: #A80036; stroke-width: 1.0;"/><polygon fill="#A80036" points="2507.17,351.04,2504.5628,357.7633,2509.7662,362.7558,2512.3734,356.0325,2507.17,351.04" style="stroke: #A80036; stroke-width: 1.0;"/><path d="M2369,364.28 C2369,389.88 2369,425.65 2369,446.67 " fill="none" id="ADMIN&lt;-ROASS" style="stroke: #A80036; stroke-width: 1.0;"/><polygon fill="#A80036" points="2369,351.26,2365,357.26,2369,363.26,2373,357.26,2369,351.26" style="stroke: #A80036; stroke-width: 1.0;"/><path d="M2583.35,417.15 C2578.99,424.9 2573.8,434.14 2569.17,442.36 " fill="none" id="US-&gt;APPR" style="stroke: #A80036; stroke-width: 1.0; stroke-dasharray: 1.0,3.0;"/><polygon fill="#A80036" points="2566.67,446.8,2574.5604,440.9058,2569.1152,442.4387,2567.5823,436.9935,2566.67,446.8" style="stroke: #A80036; stroke-width: 1.0;"/><path d="M1845.16,361.14 C1821.6,386.88 1786.9,424.78 1766.87,446.67 " fill="none" id="LD&lt;-PROD" style="stroke: #A80036; stroke-width: 1.0;"/><polygon fill="#A80036" points="1854.2,351.26,1847.1998,352.9914,1846.1056,360.119,1853.1058,358.3876,1854.2,351.26" style="stroke: #A80036; stroke-width: 1.0;"/><path d="M1870,364.28 C1870,389.88 1870,425.65 1870,446.67 " fill="none" id="LD&lt;-LOG" style="stroke: #A80036; stroke-width: 1.0;"/><polygon fill="#A80036" points="1870,351.26,1866,357.26,1870,363.26,1874,357.26,1870,351.26" style="stroke: #A80036; stroke-width: 1.0;"/><path d="M1894,361.14 C1916.77,386.88 1950.3,424.78 1969.67,446.67 " fill="none" id="LD&lt;-CLI" style="stroke: #A80036; stroke-width: 1.0;"/><polygon fill="#A80036" points="1885.27,351.26,1886.247,358.4046,1893.2178,360.2507,1892.2408,353.1061,1885.27,351.26" style="stroke: #A80036; stroke-width: 1.0;"/><path d="M1536.69,262.64 C1516.43,279.23 1490.62,300.37 1472.85,314.92 " fill="none" id="KPI&lt;-MPC" style="stroke: #A80036; stroke-width: 1.0;"/><polygon fill="#A80036" points="1546.99,254.2,1539.8139,254.9097,1537.709,261.8067,1544.8851,261.097,1546.99,254.2" style="stroke: #A80036; stroke-width: 1.0;"/><path d="M1599.04,262.64 C1619.12,279.23 1644.71,300.37 1662.33,314.92 " fill="none" id="KPI&lt;-MOP" style="stroke: #A80036; stroke-width: 1.0;"/><polygon fill="#A80036" points="1588.83,254.2,1590.9029,261.1067,1598.0756,261.8497,1596.0027,254.943,1588.83,254.2" style="stroke: #A80036; stroke-width: 1.0;"/><path d="M1533.58,252.05 C1531.7,252.74 1529.84,253.39 1528,254 C1449.68,279.9 1358.07,301.21 1292.46,314.97 " fill="none" id="KPI&lt;-RYR" style="stroke: #A80036; stroke-width: 1.0;"/><polygon fill="#A80036" points="1545.82,247.19,1538.7666,245.69,1534.6692,251.6239,1541.7226,253.1239,1545.82,247.19" style="stroke: #A80036; stroke-width: 1.0;"/></g></svg>