<?xml version="1.0" encoding="UTF-8" standalone="no"?><svg xmlns="http://www.w3.org/2000/svg" xmlns:xlink="http://www.w3.org/1999/xlink" contentScriptType="application/ecmascript" contentStyleType="text/css" height="494px" preserveAspectRatio="none" style="width:2600px;height:494px;" version="1.1" viewBox="0 0 2600 494" width="2600px" zoomAndPan="magnify"><defs/><g><rect fill="#F8F8F8" height="36.2969" style="stroke: #000000; stroke-width: 1.5;" width="92" x="1461" y="8"/><text fill="#000000" font-family="Courier" font-size="14" lengthAdjust="spacingAndGlyphs" textLength="72" x="1471" y="30.9951">FruitDash</text><rect fill="#F8F8F8" height="36.2969" style="stroke: #000000; stroke-width: 1.5;" width="132" x="466" y="105"/><text fill="#000000" font-family="Courier" font-size="14" lengthAdjust="spacingAndGlyphs" textLength="112" x="476" y="127.9951">Authentication</text><rect fill="#F8F8F8" height="36.2969" style="stroke: #000000; stroke-width: 1.5;" width="124" x="1773" y="105"/><text fill="#000000" font-family="Courier" font-size="14" lengthAdjust="spacingAndGlyphs" textLength="104" x="1783" y="127.9951">Authorization</text><rect fill="#F8F8F8" height="36.2969" style="stroke: #000000; stroke-width: 1.5;" width="92" x="1461" y="105"/><text fill="#000000" font-family="Courier" font-size="14" lengthAdjust="spacingAndGlyphs" textLength="72" x="1471" y="127.9951">Home Page</text><rect fill="#F8F8F8" height="36.2969" style="stroke: #000000; stroke-width: 1.5;" width="140" x="2242" y="105"/><text fill="#000000" font-family="Courier" font-size="14" lengthAdjust="spacingAndGlyphs" textLength="120" x="2252" y="127.9951">Graph Extractor</text><rect fill="#F8F8F8" height="36.2969" style="stroke: #000000; stroke-width: 1.5;" width="252" x="1161" y="105"/><text fill="#000000" font-family="Courier" font-size="14" lengthAdjust="spacingAndGlyphs" textLength="232" x="1171" y="127.9951">Natural Language Based Search</text><rect fill="#F8F8F8" height="36.2969" style="stroke: #000000; stroke-width: 1.5;" width="84" x="490" y="218"/><text fill="#000000" font-family="Courier" font-size="14" lengthAdjust="spacingAndGlyphs" textLength="64" x="500" y="240.9951">1-factor</text><rect fill="#F8F8F8" height="36.2969" style="stroke: #000000; stroke-width: 1.5;" width="92" x="305" y="218"/><text fill="#000000" font-family="Courier" font-size="14" lengthAdjust="spacingAndGlyphs" textLength="72" x="315" y="240.9951">2-factors</text><rect fill="#F8F8F8" height="36.2969" style="stroke: #000000; stroke-width: 1.5;" width="52" x="2186" y="218"/><text fill="#000000" font-family="Courier" font-size="14" lengthAdjust="spacingAndGlyphs" textLength="32" x="2196" y="240.9951">Role</text><rect fill="#F8F8F8" height="36.2969" style="stroke: #000000; stroke-width: 1.5;" width="68" x="1253" y="218"/><text fill="#000000" font-family="Courier" font-size="14" lengthAdjust="spacingAndGlyphs" textLength="48" x="1263" y="240.9951">Search</text><rect fill="#F8F8F8" height="36.2969" style="stroke: #000000; stroke-width: 1.5;" width="132" x="1804" y="218"/><text fill="#000000" font-family="Courier" font-size="14" lengthAdjust="spacingAndGlyphs" textLength="112" x="1814" y="240.9951">Data Displayer</text><rect fill="#F8F8F8" height="36.2969" style="stroke: #000000; stroke-width: 1.5;" width="132" x="1356" y="218"/><text fill="#000000" font-family="Courier" font-size="14" lengthAdjust="spacingAndGlyphs" textLength="112" x="1366" y="240.9951">Data Extractor</text><rect fill="#F8F8F8" height="36.2969" style="stroke: #000000; stroke-width: 1.5;" width="44" x="1523" y="218"/><text fill="#000000" font-family="Courier" font-size="14" lengthAdjust="spacingAndGlyphs" textLength="24" x="1533" y="240.9951">KPI</text><rect fill="#F8F8F8" height="36.2969" style="stroke: #000000; stroke-width: 1.5;" width="132" x="2368" y="218"/><text fill="#000000" font-family="Courier" font-size="14" lengthAdjust="spacingAndGlyphs" textLength="112" x="2378" y="240.9951">Graph provider</text><rect fill="#F8F8F8" height="36.2969" style="stroke: #000000; stroke-width: 1.5;" width="60" x="980" y="218"/><text fill="#000000" font-family="Courier" font-size="14" lengthAdjust="spacingAndGlyphs" textLength="40" x="990" y="240.9951">Query</text><rect fill="#F8F8F8" height="36.2969" style="stroke: #000000; stroke-width: 1.5;" width="84" x="459" y="315"/><text fill="#000000" font-family="Courier" font-size="14" lengthAdjust="spacingAndGlyphs" textLength="64" x="469" y="337.9951">Password</text><rect fill="#F8F8F8" height="36.2969" style="stroke: #000000; stroke-width: 1.5;" width="100" x="578" y="315"/><text fill="#000000" font-family="Courier" font-size="14" lengthAdjust="spacingAndGlyphs" textLength="80" x="588" y="337.9951">Biometrics</text><rect fill="#F8F8F8" height="36.2969" style="stroke: #000000; stroke-width: 1.5;" width="84" x="340" y="315"/><text fill="#000000" font-family="Courier" font-size="14" lengthAdjust="spacingAndGlyphs" textLength="64" x="350" y="337.9951">SMS Code</text><rect fill="#F8F8F8" height="36.2969" style="stroke: #000000; stroke-width: 1.5;" width="100" x="6" y="315"/><text fill="#000000" font-family="Courier" font-size="14" lengthAdjust="spacingAndGlyphs" textLength="80" x="16" y="337.9951">Email Code</text><rect fill="#F8F8F8" height="36.2969" style="stroke: #000000; stroke-width: 1.5;" width="164" x="141" y="315"/><text fill="#000000" font-family="Courier" font-size="14" lengthAdjust="spacingAndGlyphs" textLength="144" x="151" y="337.9951">Security Questions</text><rect fill="#F8F8F8" height="36.2969" style="stroke: #000000; stroke-width: 1.5;" width="116" x="1812" y="315"/><text fill="#000000" font-family="Courier" font-size="14" lengthAdjust="spacingAndGlyphs" textLength="96" x="1822" y="337.9951">Tabular data</text><rect fill="#F8F8F8" height="36.2969" style="stroke: #000000; stroke-width: 1.5;" width="132" x="1963" y="315"/><text fill="#000000" font-family="Courier" font-size="14" lengthAdjust="spacingAndGlyphs" textLength="112" x="1973" y="337.9951">Visualizations</text><rect fill="#F8F8F8" height="36.2969" style="stroke: #000000; stroke-width: 1.5;" width="76" x="2130" y="315"/><text fill="#000000" font-family="Courier" font-size="14" lengthAdjust="spacingAndGlyphs" textLength="56" x="2140" y="337.9951">Analyst</text><rect fill="#F8F8F8" height="36.2969" style="stroke: #000000; stroke-width: 1.5;" width="76" x="2400" y="315"/><text fill="#000000" font-family="Courier" font-size="14" lengthAdjust="spacingAndGlyphs" textLength="56" x="2410" y="337.9951">Manager</text><rect fill="#F8F8F8" height="36.2969" style="stroke: #000000; stroke-width: 1.5;" width="124" x="2241" y="315"/><text fill="#000000" font-family="Courier" font-size="14" lengthAdjust="spacingAndGlyphs" textLength="104" x="2251" y="337.9951">Administrator</text><rect fill="#F8F8F8" height="36.2969" style="stroke: #000000; stroke-width: 1.5;" width="100" x="960" y="315"/><text fill="#000000" font-family="Courier" font-size="14" lengthAdjust="spacingAndGlyphs" textLength="80" x="970" y="337.9951">User input</text><rect fill="#F8F8F8" height="36.2969" style="stroke: #000000; stroke-width: 1.5;" width="212" x="713" y="315"/><text fill="#000000" font-family="Courier" font-size="14" lengthAdjust="spacingAndGlyphs" textLength="192" x="723" y="337.9951">App generated suggestion</text><rect fill="#F8F8F8" height="36.2969" style="stroke: #000000; stroke-width: 1.5;" width="124" x="2465" y="381"/><text fill="#000000" font-family="Courier" font-size="14" lengthAdjust="spacingAndGlyphs" textLength="104" x="2475" y="403.9951">User selected</text><rect fill="#F8F8F8" height="36.2969" style="stroke: #000000; stroke-width: 1.5;" width="92" x="2445" y="447"/><text fill="#000000" font-family="Courier" font-size="14" lengthAdjust="spacingAndGlyphs" textLength="72" x="2455" y="469.9951">Approvals</text><rect fill="#F8F8F8" height="36.2969" style="stroke: #000000; stroke-width: 1.5;" width="140" x="2233" y="447"/><text fill="#000000" font-family="Courier" font-size="14" lengthAdjust="spacingAndGlyphs" textLength="120" x="2243" y="469.9951">Role assignment</text><rect fill="#F8F8F8" height="36.2969" style="stroke: #000000; stroke-width: 1.5;" width="84" x="1709" y="447"/><text fill="#000000" font-family="Courier" font-size="14" lengthAdjust="spacingAndGlyphs" textLength="64" x="1719" y="469.9951">Products</text><rect fill="#F8F8F8" height="36.2969" style="stroke: #000000; stroke-width: 1.5;" width="84" x="1828" y="447"/><text fill="#000000" font-family="Courier" font-size="14" lengthAdjust="spacingAndGlyphs" textLength="64" x="1838" y="469.9951">Logistic</text><rect fill="#F8F8F8" height="36.2969" style="stroke: #000000; stroke-width: 1.5;" width="76" x="1947" y="447"/><text fill="#000000" font-family="Courier" font-size="14" lengthAdjust="spacingAndGlyphs" textLength="56" x="1957" y="469.9951">Clients</text><rect fill="#F8F8F8" height="36.2969" style="stroke: #000000; stroke-width: 1.5;" width="204" x="1350" y="315"/><text fill="#000000" font-family="Courier" font-size="14" lengthAdjust="spacingAndGlyphs" textLength="184" x="1360" y="337.9951">Most profitable clients</text><rect fill="#F8F8F8" height="36.2969" style="stroke: #000000; stroke-width: 1.5;" width="188" x="1589" y="315"/><text fill="#000000" font-family="Courier" font-size="14" lengthAdjust="spacingAndGlyphs" textLength="168" x="1599" y="337.9951">Most ordered products</text><rect fill="#F8F8F8" height="36.2969" style="stroke: #000000; stroke-width: 1.5;" width="220" x="1095" y="315"/><text fill="#000000" font-family="Courier" font-size="14" lengthAdjust="spacingAndGlyphs" textLength="200" x="1105" y="337.9951">Running quaterly revenues</text><path d="M1460.96,31.49 C1306.63,46.52 806.4,95.26 611.12,114.29 " fill="none" id="FD-&gt;AUTHC" style="stroke: #383838; stroke-width: 1.0;"/><polygon fill="#383838" points="598.15,115.55,604.509,118.9505,610.0937,114.3886,603.7347,110.9881,598.15,115.55" style="stroke: #383838; stroke-width: 1.0;"/><path d="M1553.3,40.41 C1607.98,56.25 1699.57,82.77 1763.41,101.27 " fill="none" id="FD-&gt;AUTHR" style="stroke: #383838; stroke-width: 1.0;"/><polygon fill="#383838" points="1776.19,104.97,1771.5388,99.4594,1764.6632,101.6333,1769.3144,107.1439,1776.19,104.97" style="stroke: #383838; stroke-width: 1.0;"/><path d="M1507,44.42 C1507,57.55 1507,75.88 1507,91.42 " fill="none" id="FD-&gt;HP" style="stroke: #383838; stroke-width: 1.0;"/><polygon fill="#383838" points="1507,104.69,1511,98.69,1507,92.69,1503,98.69,1507,104.69" style="stroke: #383838; stroke-width: 1.0;"/><path d="M1553.17,32.45 C1686.36,48.17 2072.21,93.7 2236.5,113.09 " fill="none" id="FD-&gt;GE" style="stroke: #383838; stroke-width: 1.0;"/><ellipse cx="2235.8114" cy="113.006" fill="#FFFFFF" rx="6" ry="6" style="stroke: #383838; stroke-width: 1.5;"/><path d="M1467.41,44.09 C1429.14,60.62 1371.23,85.63 1331.4,102.83 " fill="none" id="FD-&gt;NLBS" style="stroke: #383838; stroke-width: 1.0;"/><ellipse cx="1332.1487" cy="102.502" fill="#FFFFFF" rx="6" ry="6" style="stroke: #383838; stroke-width: 1.5;"/><path d="M532,154.36 C532,174.75 532,200.88 532,217.78 " fill="none" id="AUTHC&lt;-1F" style="stroke: #383838; stroke-width: 1.0;"/><polygon fill="#383838" points="532,141.34,528,147.34,532,153.34,536,147.34,532,141.34" style="stroke: #383838; stroke-width: 1.0;"/><path d="M492.64,148.14 C458.3,169.2 409.36,199.21 378.92,217.88 " fill="none" id="AUTHC&lt;-2F" style="stroke: #383838; stroke-width: 1.0;"/><polygon fill="#383838" points="504.12,141.1,496.914,140.8276,493.8911,147.3745,501.097,147.6469,504.12,141.1" style="stroke: #383838; stroke-width: 1.0;"/><path d="M397.14,236 C423.95,236 457.65,236 484.66,236 " fill="none" id="2F-&gt;1F" style="stroke: #383838; stroke-width: 1.0; stroke-dasharray: 1.0,3.0;"/><polygon fill="#383838" points="489.97,236,480.97,232,484.97,236,480.97,240,489.97,236" style="stroke: #383838; stroke-width: 1.0;"/><text fill="#000000" font-family="Courier" font-size="13" lengthAdjust="spacingAndGlyphs" textLength="56" x="415.5" y="229.0669">require</text><path d="M1905.7,144.82 C1990.47,169.78 2128.31,210.36 2185.66,227.25 " fill="none" id="AUTHR&lt;-ROLE" style="stroke: #383838; stroke-width: 1.0;"/><polygon fill="#383838" points="1893.08,141.1,1897.7062,146.6316,1904.5915,144.4889,1899.9654,138.9572,1893.08,141.1" style="stroke: #383838; stroke-width: 1.0;"/><path d="M1468.39,143.48 C1426.65,164.54 1360.76,197.79 1320.93,217.88 " fill="none" id="HP&lt;-SEARCH" style="stroke: #383838; stroke-width: 1.0;"/><ellipse cx="1467.7537" cy="143.8038" fill="#FFFFFF" rx="6" ry="6" style="stroke: #383838; stroke-width: 1.5;"/><path d="M1517.19,153.77 C1524.2,174.25 1533.26,200.72 1539.1,217.78 " fill="none" id="HP&lt;-KPI" style="stroke: #383838; stroke-width: 1.0;"/><polygon fill="#383838" points="1512.94,141.34,1511.1007,148.3126,1516.8295,152.6922,1518.6688,145.7196,1512.94,141.34" style="stroke: #383838; stroke-width: 1.0;"/><path d="M1566.03,142.05 C1634.62,163.02 1746.92,197.37 1814.13,217.92 " fill="none" id="HP&lt;-DD" style="stroke: #383838; stroke-width: 1.0;"/><polygon fill="#383838" points="1553.34,138.17,1557.9024,143.7543,1564.8119,141.6907,1560.2495,136.1064,1553.34,138.17" style="stroke: #383838; stroke-width: 1.0;"/><path d="M1485.75,151.75 C1469.88,172.47 1448.69,200.15 1435.19,217.78 " fill="none" id="HP&lt;-DE" style="stroke: #383838; stroke-width: 1.0;"/><polygon fill="#383838" points="1493.72,141.34,1486.8976,143.6756,1486.4296,150.8715,1493.252,148.5359,1493.72,141.34" style="stroke: #383838; stroke-width: 1.0;"/><path d="M1286.54,141.41 C1286.33,150.27 1286.1,161.21 1286,171 C1285.85,184.9 1286.09,200.51 1286.37,212.82 " fill="none" id="NLBS-&gt;SEARCH" style="stroke: #383838; stroke-width: 1.0; stroke-dasharray: 1.0,3.0;"/><polygon fill="#383838" points="1286.49,217.89,1290.2833,208.8009,1286.3757,212.8913,1282.2854,208.9838,1286.49,217.89" style="stroke: #383838; stroke-width: 1.0;"/><text fill="#000000" font-family="Courier" font-size="13" lengthAdjust="spacingAndGlyphs" textLength="64" x="1287" y="184.0669">requires</text><path d="M2340.65,150.07 C2363.57,170.92 2395.07,199.58 2414.98,217.7 " fill="none" id="GE&lt;-GP" style="stroke: #383838; stroke-width: 1.0;"/><polygon fill="#383838" points="2330.8,141.1,2332.5479,148.0961,2339.6781,149.1734,2337.9302,142.1773,2330.8,141.1" style="stroke: #383838; stroke-width: 1.0;"/><path d="M1232.19,145.96 C1174.68,169.01 1086.37,204.4 1040.32,222.85 " fill="none" id="NLBS&lt;-QUE" style="stroke: #383838; stroke-width: 1.0;"/><polygon fill="#383838" points="1244.33,141.1,1237.2736,139.6144,1233.1883,145.5567,1240.2447,147.0423,1244.33,141.1" style="stroke: #383838; stroke-width: 1.0;"/><path d="M522.13,267.24 C517.02,282.9 510.97,301.46 506.65,314.69 " fill="none" id="1F&lt;-PWD" style="stroke: #383838; stroke-width: 1.0;"/><polygon fill="#FFFFFF" points="526.31,254.42,520.6473,258.8847,522.5905,265.829,528.2533,261.3643,526.31,254.42" style="stroke: #383838; stroke-width: 1.0;"/><path d="M559.24,263.96 C575.7,280.25 596.19,300.52 610.5,314.69 " fill="none" id="1F&lt;-BIO" style="stroke: #383838; stroke-width: 1.0;"/><polygon fill="#FFFFFF" points="549.61,254.42,551.0627,261.4833,558.1413,262.859,556.6887,255.7957,549.61,254.42" style="stroke: #383838; stroke-width: 1.0;"/><path d="M360.87,267.24 C365.98,282.9 372.03,301.46 376.35,314.69 " fill="none" id="2F&lt;-SMS" style="stroke: #383838; stroke-width: 1.0;"/><polygon fill="#FFFFFF" points="356.69,254.42,354.7467,261.3643,360.4095,265.829,362.3527,258.8847,356.69,254.42" style="stroke: #383838; stroke-width: 1.0;"/><path d="M292.34,255.89 C237.91,273.42 157.75,299.23 106.21,315.83 " fill="none" id="2F&lt;-EMAIL" style="stroke: #383838; stroke-width: 1.0;"/><polygon fill="#FFFFFF" points="304.91,251.84,297.9725,249.8726,293.4881,255.5198,300.4257,257.4872,304.91,251.84" style="stroke: #383838; stroke-width: 1.0;"/><path d="M317.37,261.96 C294.89,278.65 265.89,300.17 246.01,314.92 " fill="none" id="2F&lt;-SQ" style="stroke: #383838; stroke-width: 1.0;"/><polygon fill="#FFFFFF" points="327.82,254.2,320.6179,254.5604,318.1806,261.3471,325.3827,260.9867,327.82,254.2" style="stroke: #383838; stroke-width: 1.0;"/><path d="M1870,267.71 C1870,283.27 1870,301.59 1870,314.69 " fill="none" id="DD&lt;-LD" style="stroke: #383838; stroke-width: 1.0;"/><polygon fill="#383838" points="1870,254.42,1866,260.42,1870,266.42,1874,260.42,1870,254.42" style="stroke: #383838; stroke-width: 1.0;"/><path d="M1910.26,261.05 C1938.39,277.86 1975.27,299.9 2000.42,314.92 " fill="none" id="DD&lt;-VIS" style="stroke: #383838; stroke-width: 1.0;"/><polygon fill="#383838" points="1898.79,254.2,1901.8868,260.7123,1909.0892,260.3584,1905.9924,253.8461,1898.79,254.2" style="stroke: #383838; stroke-width: 1.0;"/><path d="M2198.43,266.29 C2191.09,282.15 2182.27,301.19 2176.02,314.69 " fill="none" id="ROLE&lt;-ANA" style="stroke: #383838; stroke-width: 1.0;"/><polygon fill="#FFFFFF" points="2203.93,254.42,2197.7792,258.184,2198.8879,265.3093,2205.0387,261.5454,2203.93,254.42" style="stroke: #383838; stroke-width: 1.0;"/><path d="M2250.46,253.17 C2292.12,270.68 2358.18,298.45 2399.76,315.93 " fill="none" id="ROLE&lt;-MAN" style="stroke: #383838; stroke-width: 1.0;"/><polygon fill="#FFFFFF" points="2238.37,248.08,2242.3553,254.0898,2249.4356,252.7225,2245.4503,246.7127,2238.37,248.08" style="stroke: #383838; stroke-width: 1.0;"/><path d="M2237.82,263.96 C2253.42,280.25 2272.85,300.52 2286.42,314.69 " fill="none" id="ROLE&lt;-ADMIN" style="stroke: #383838; stroke-width: 1.0;"/><polygon fill="#FFFFFF" points="2228.69,254.42,2229.9556,261.5192,2236.9954,263.0814,2235.7298,255.9822,2228.69,254.42" style="stroke: #383838; stroke-width: 1.0;"/><path d="M1010,267.71 C1010,283.27 1010,301.59 1010,314.69 " fill="none" id="QUE&lt;-UI" style="stroke: #383838; stroke-width: 1.0;"/><polygon fill="#383838" points="1010,254.42,1006,260.42,1010,266.42,1014,260.42,1010,254.42" style="stroke: #383838; stroke-width: 1.0;"/><path d="M967.73,258.03 C933.32,275.14 885.38,298.99 853.32,314.93 " fill="none" id="QUE&lt;-AGS" style="stroke: #383838; stroke-width: 1.0;"/><polygon fill="#383838" points="979.74,252.05,972.5868,251.138,968.9937,257.3902,976.1469,258.3022,979.74,252.05" style="stroke: #383838; stroke-width: 1.0;"/><path d="M2458.13,264.44 C2469.97,278.83 2483.84,297.13 2494,315 C2506.26,336.57 2516.09,363.6 2521.73,380.84 " fill="none" id="GP&lt;-US" style="stroke: #383838; stroke-width: 1.0;"/><polygon fill="#383838" points="2449.57,254.28,2450.3856,261.4448,2457.313,263.4476,2456.4974,256.2828,2449.57,254.28" style="stroke: #383838; stroke-width: 1.0;"/><path d="M2444.04,364.03 C2447.84,380.14 2453.47,400.1 2461,417 C2465.65,427.43 2472.39,438.23 2478.3,446.85 " fill="none" id="MAN&lt;-APPR" style="stroke: #383838; stroke-width: 1.0;"/><polygon fill="#383838" points="2441.17,351.04,2438.5628,357.7633,2443.7662,362.7558,2446.3734,356.0325,2441.17,351.04" style="stroke: #383838; stroke-width: 1.0;"/><path d="M2303,364.28 C2303,389.88 2303,425.65 2303,446.67 " fill="none" id="ADMIN&lt;-ROASS" style="stroke: #383838; stroke-width: 1.0;"/><polygon fill="#FFFFFF" points="2303,351.26,2299,357.26,2303,363.26,2307,357.26,2303,351.26" style="stroke: #383838; stroke-width: 1.0;"/><path d="M2517.35,417.15 C2512.99,424.9 2507.8,434.14 2503.17,442.36 " fill="none" id="US-&gt;APPR" style="stroke: #383838; stroke-width: 1.0; stroke-dasharray: 1.0,3.0;"/><polygon fill="#383838" points="2500.67,446.8,2508.5604,440.9058,2503.1152,442.4387,2501.5823,436.9935,2500.67,446.8" style="stroke: #383838; stroke-width: 1.0;"/><path d="M1845.16,361.14 C1821.6,386.88 1786.9,424.78 1766.87,446.67 " fill="none" id="LD&lt;-PROD" style="stroke: #383838; stroke-width: 1.0;"/><polygon fill="#383838" points="1854.2,351.26,1847.1998,352.9914,1846.1056,360.119,1853.1058,358.3876,1854.2,351.26" style="stroke: #383838; stroke-width: 1.0;"/><path d="M1870,364.28 C1870,389.88 1870,425.65 1870,446.67 " fill="none" id="LD&lt;-LOG" style="stroke: #383838; stroke-width: 1.0;"/><polygon fill="#383838" points="1870,351.26,1866,357.26,1870,363.26,1874,357.26,1870,351.26" style="stroke: #383838; stroke-width: 1.0;"/><path d="M1894,361.14 C1916.77,386.88 1950.3,424.78 1969.67,446.67 " fill="none" id="LD&lt;-CLI" style="stroke: #383838; stroke-width: 1.0;"/><polygon fill="#383838" points="1885.27,351.26,1886.247,358.4046,1893.2178,360.2507,1892.2408,353.1061,1885.27,351.26" style="stroke: #383838; stroke-width: 1.0;"/><path d="M1518.61,263.96 C1502.66,280.25 1482.81,300.52 1468.95,314.69 " fill="none" id="KPI&lt;-MPC" style="stroke: #383838; stroke-width: 1.0;"/><polygon fill="#383838" points="1527.94,254.42,1520.8836,255.9056,1519.5409,262.9906,1526.5973,261.505,1527.94,254.42" style="stroke: #383838; stroke-width: 1.0;"/><path d="M1578.14,259.82 C1602.73,276.74 1635.72,299.45 1658.08,314.85 " fill="none" id="KPI&lt;-MOP" style="stroke: #383838; stroke-width: 1.0;"/><polygon fill="#383838" points="1567.17,252.26,1569.8417,258.9579,1577.052,259.0679,1574.3803,252.3699,1567.17,252.26" style="stroke: #383838; stroke-width: 1.0;"/><path d="M1510.57,252.01 C1508.7,252.71 1506.83,253.38 1505,254 C1431,279.19 1344.4,300.91 1283.31,314.98 " fill="none" id="KPI&lt;-RYR" style="stroke: #383838; stroke-width: 1.0;"/><polygon fill="#383838" points="1522.8,247.12,1515.7436,245.6344,1511.6583,251.5767,1518.7147,253.0623,1522.8,247.12" style="stroke: #383838; stroke-width: 1.0;"/></g></svg>