<?xml version="1.0" encoding="UTF-8" standalone="no"?><svg xmlns="http://www.w3.org/2000/svg" xmlns:xlink="http://www.w3.org/1999/xlink" contentScriptType="application/ecmascript" contentStyleType="text/css" height="388px" preserveAspectRatio="none" style="width:292px;height:388px;" version="1.1" viewBox="0 0 292 388" width="292px" zoomAndPan="magnify"><defs/><g><rect fill="#FFFFFF" height="62.9766" style="stroke: #444444; stroke-width: 1.0; stroke-dasharray: 7.0,7.0;" width="68" x="99" y="171"/><text fill="#000000" font-family="sans-serif" font-size="0" font-style="italic" lengthAdjust="spacingAndGlyphs" textLength="0" x="133" y="181">«boundary»</text><text fill="#444444" font-family="sans-serif" font-size="16" font-weight="bold" lengthAdjust="spacingAndGlyphs" textLength="34" x="116" y="206.4688">ASQ</text><text fill="#444444" font-family="sans-serif" font-size="12" lengthAdjust="spacingAndGlyphs" textLength="48" x="109" y="221.4453">[System]</text><rect fill="#08427B" height="85.9531" style="stroke: #073B6F; stroke-width: 1.5;" width="92" x="6" y="8"/><text fill="#FFFFFF" font-family="sans-serif" font-size="12" font-style="italic" lengthAdjust="spacingAndGlyphs" textLength="52" x="26" y="29.6016">«person»</text><text fill="#FFFFFF" font-family="sans-serif" font-size="16" font-weight="bold" lengthAdjust="spacingAndGlyphs" textLength="72" x="16" y="47.6016">Students</text><text fill="#FFFFFF" font-family="sans-serif" font-size="14" lengthAdjust="spacingAndGlyphs" textLength="0" x="54" y="64.5117"/><text fill="#FFFFFF" font-family="sans-serif" font-size="14" lengthAdjust="spacingAndGlyphs" textLength="0" x="54" y="81"/><rect fill="#08427B" height="85.9531" style="stroke: #073B6F; stroke-width: 1.5;" width="72" x="179" y="8"/><text fill="#FFFFFF" font-family="sans-serif" font-size="12" font-style="italic" lengthAdjust="spacingAndGlyphs" textLength="52" x="189" y="29.6016">«person»</text><text fill="#FFFFFF" font-family="sans-serif" font-size="16" font-weight="bold" lengthAdjust="spacingAndGlyphs" textLength="43" x="193.5" y="47.6016">Profs</text><text fill="#FFFFFF" font-family="sans-serif" font-size="14" lengthAdjust="spacingAndGlyphs" textLength="0" x="217" y="64.5117"/><text fill="#FFFFFF" font-family="sans-serif" font-size="14" lengthAdjust="spacingAndGlyphs" textLength="0" x="217" y="81"/><rect fill="#999999" height="52.9766" style="stroke: #8A8A8A; stroke-width: 1.5;" width="125" x="70.5" y="325"/><text fill="#FFFFFF" font-family="sans-serif" font-size="12" font-style="italic" lengthAdjust="spacingAndGlyphs" textLength="105" x="80.5" y="346.6016">«external_system»</text><text fill="#FFFFFF" font-family="sans-serif" font-size="16" font-weight="bold" lengthAdjust="spacingAndGlyphs" textLength="47" x="109.5" y="364.6016">iCorsi</text><path d="M42.29,94.18 C40.81,109.65 41.74,126.83 49,141 C58.58,159.72 76.95,173.96 94.08,183.91 " fill="none" id="user_s-&gt;boundary" style="stroke: #666666; stroke-width: 1.0;"/><polygon fill="#666666" points="98.86,186.61,92.9658,178.7196,94.4987,184.1648,89.0535,185.6977,98.86,186.61" style="stroke: #666666; stroke-width: 1.0;"/><text fill="#666666" font-family="sans-serif" font-size="13" font-weight="bold" lengthAdjust="spacingAndGlyphs" textLength="121" x="50" y="137.5684">Answer questions</text><path d="M198.66,94.07 C192.24,109.19 184.4,126.18 176,141 C171.18,149.51 165.43,158.3 159.73,166.45 " fill="none" id="user_p-&gt;boundary" style="stroke: #666666; stroke-width: 1.0;"/><polygon fill="#666666" points="156.58,170.9,165.0394,165.8563,159.4645,166.816,158.5049,161.2411,156.58,170.9" style="stroke: #666666; stroke-width: 1.0;"/><text fill="#666666" font-family="sans-serif" font-size="13" font-weight="bold" lengthAdjust="spacingAndGlyphs" textLength="95" x="185" y="137.5684">Ask questions</text><path d="M133,234.32 C133,259.31 133,294.38 133,319.44 " fill="none" id="boundary-&gt;icorsi" style="stroke: #666666; stroke-width: 1.0;"/><polygon fill="#666666" points="133,324.63,137,315.63,133,319.63,129,315.63,133,324.63" style="stroke: #666666; stroke-width: 1.0;"/><text fill="#666666" font-family="sans-serif" font-size="13" font-weight="bold" lengthAdjust="spacingAndGlyphs" textLength="96" x="148" y="277.5684">Import/Export</text><text fill="#666666" font-family="sans-serif" font-size="12" font-style="italic" lengthAdjust="spacingAndGlyphs" textLength="124" x="134" y="291.9121">[Student List, Grades]</text></g></svg>