<?xml version="1.0" encoding="UTF-8" standalone="no"?><svg xmlns="http://www.w3.org/2000/svg" xmlns:xlink="http://www.w3.org/1999/xlink" contentScriptType="application/ecmascript" contentStyleType="text/css" height="328px" preserveAspectRatio="none" style="width:985px;height:328px;" version="1.1" viewBox="0 0 985 328" width="985px" zoomAndPan="magnify"><defs/><g><text fill="#000000" font-family="Courier" font-size="14" font-weight="bold" lengthAdjust="spacingAndGlyphs" textLength="224" x="379" y="22.9951">User access to the dashboard​</text><line style="stroke: #383838; stroke-width: 1.0; stroke-dasharray: 5.0,5.0;" x1="79" x2="79" y1="64.5938" y2="288.5234"/><line style="stroke: #383838; stroke-width: 1.0; stroke-dasharray: 5.0,5.0;" x1="303" x2="303" y1="64.5938" y2="288.5234"/><line style="stroke: #383838; stroke-width: 1.0; stroke-dasharray: 5.0,5.0;" x1="427" x2="427" y1="64.5938" y2="288.5234"/><line style="stroke: #383838; stroke-width: 1.0; stroke-dasharray: 5.0,5.0;" x1="563" x2="563" y1="64.5938" y2="288.5234"/><line style="stroke: #383838; stroke-width: 1.0; stroke-dasharray: 5.0,5.0;" x1="775" x2="775" y1="64.5938" y2="288.5234"/><line style="stroke: #383838; stroke-width: 1.0; stroke-dasharray: 5.0,5.0;" x1="911" x2="911" y1="64.5938" y2="288.5234"/><rect fill="#F8F8F8" height="30.2969" style="stroke: #383838; stroke-width: 1.5;" width="142" x="8" y="33.2969"/><text fill="#000000" font-family="Courier" font-size="14" lengthAdjust="spacingAndGlyphs" textLength="128" x="15" y="53.292">Identity Service</text><rect fill="#F8F8F8" height="30.2969" style="stroke: #383838; stroke-width: 1.5;" width="142" x="8" y="287.5234"/><text fill="#000000" font-family="Courier" font-size="14" lengthAdjust="spacingAndGlyphs" textLength="128" x="15" y="307.5186">Identity Service</text><rect fill="#F8F8F8" height="30.2969" style="stroke: #383838; stroke-width: 1.5;" width="86" x="260" y="33.2969"/><text fill="#000000" font-family="Courier" font-size="14" lengthAdjust="spacingAndGlyphs" textLength="72" x="267" y="53.292">Dashboard</text><rect fill="#F8F8F8" height="30.2969" style="stroke: #383838; stroke-width: 1.5;" width="86" x="260" y="287.5234"/><text fill="#000000" font-family="Courier" font-size="14" lengthAdjust="spacingAndGlyphs" textLength="72" x="267" y="307.5186">Dashboard</text><rect fill="#F8F8F8" height="30.2969" style="stroke: #383838; stroke-width: 1.5;" width="142" x="356" y="33.2969"/><text fill="#000000" font-family="Courier" font-size="14" lengthAdjust="spacingAndGlyphs" textLength="128" x="363" y="53.292">Database service​</text><rect fill="#F8F8F8" height="30.2969" style="stroke: #383838; stroke-width: 1.5;" width="142" x="356" y="287.5234"/><text fill="#000000" font-family="Courier" font-size="14" lengthAdjust="spacingAndGlyphs" textLength="128" x="363" y="307.5186">Database service​</text><rect fill="#F8F8F8" height="30.2969" style="stroke: #383838; stroke-width: 1.5;" width="78" x="524" y="33.2969"/><text fill="#000000" font-family="Courier" font-size="14" lengthAdjust="spacingAndGlyphs" textLength="64" x="531" y="53.292">Data API​</text><rect fill="#F8F8F8" height="30.2969" style="stroke: #383838; stroke-width: 1.5;" width="78" x="524" y="287.5234"/><text fill="#000000" font-family="Courier" font-size="14" lengthAdjust="spacingAndGlyphs" textLength="64" x="531" y="307.5186">Data API​</text><rect fill="#F8F8F8" height="30.2969" style="stroke: #383838; stroke-width: 1.5;" width="126" x="712" y="33.2969"/><text fill="#000000" font-family="Courier" font-size="14" lengthAdjust="spacingAndGlyphs" textLength="112" x="719" y="53.292">Graph provider​</text><rect fill="#F8F8F8" height="30.2969" style="stroke: #383838; stroke-width: 1.5;" width="126" x="712" y="287.5234"/><text fill="#000000" font-family="Courier" font-size="14" lengthAdjust="spacingAndGlyphs" textLength="112" x="719" y="307.5186">Graph provider​</text><rect fill="#F8F8F8" height="30.2969" style="stroke: #383838; stroke-width: 1.5;" width="126" x="848" y="33.2969"/><text fill="#000000" font-family="Courier" font-size="14" lengthAdjust="spacingAndGlyphs" textLength="112" x="855" y="53.292">Data extractor​​</text><rect fill="#F8F8F8" height="30.2969" style="stroke: #383838; stroke-width: 1.5;" width="126" x="848" y="287.5234"/><text fill="#000000" font-family="Courier" font-size="14" lengthAdjust="spacingAndGlyphs" textLength="112" x="855" y="307.5186">Data extractor​​</text><polygon fill="#383838" points="291,91.7266,301,95.7266,291,99.7266,295,95.7266" style="stroke: #383838; stroke-width: 1.0;"/><line style="stroke: #383838; stroke-width: 1.0;" x1="79" x2="297" y1="95.7266" y2="95.7266"/><text fill="#000000" font-family="Courier" font-size="13" lengthAdjust="spacingAndGlyphs" textLength="200" x="86" y="90.6606">Grants access to the user</text><polygon fill="#383838" points="763,120.8594,773,124.8594,763,128.8594,767,124.8594" style="stroke: #383838; stroke-width: 1.0;"/><line style="stroke: #383838; stroke-width: 1.0;" x1="303" x2="769" y1="124.8594" y2="124.8594"/><text fill="#000000" font-family="Courier" font-size="13" lengthAdjust="spacingAndGlyphs" textLength="448" x="310" y="119.7935">Retrieves the graphs calling the graph provider service ​</text><polygon fill="#383838" points="574,149.9922,564,153.9922,574,157.9922,570,153.9922" style="stroke: #383838; stroke-width: 1.0;"/><line style="stroke: #383838; stroke-width: 1.0;" x1="568" x2="774" y1="153.9922" y2="153.9922"/><text fill="#000000" font-family="Courier" font-size="13" lengthAdjust="spacingAndGlyphs" textLength="136" x="580" y="148.9263">Requests the data​</text><polygon fill="#383838" points="90,179.125,80,183.125,90,187.125,86,183.125" style="stroke: #383838; stroke-width: 1.0;"/><line style="stroke: #383838; stroke-width: 1.0;" x1="84" x2="562" y1="183.125" y2="183.125"/><text fill="#000000" font-family="Courier" font-size="13" lengthAdjust="spacingAndGlyphs" textLength="304" x="96" y="178.0591">Check authentication and authorization​</text><polygon fill="#383838" points="551,208.2578,561,212.2578,551,216.2578,555,212.2578" style="stroke: #383838; stroke-width: 1.0;"/><line style="stroke: #383838; stroke-width: 1.0;" x1="79" x2="557" y1="212.2578" y2="212.2578"/><text fill="#000000" font-family="Courier" font-size="13" lengthAdjust="spacingAndGlyphs" textLength="224" x="86" y="207.1919">Provide authentication reply​</text><polygon fill="#383838" points="438,237.3906,428,241.3906,438,245.3906,434,241.3906" style="stroke: #383838; stroke-width: 1.0;"/><line style="stroke: #383838; stroke-width: 1.0;" x1="432" x2="562" y1="241.3906" y2="241.3906"/><text fill="#000000" font-family="Courier" font-size="13" lengthAdjust="spacingAndGlyphs" textLength="112" x="444" y="236.3247">Fetch the data​</text><polygon fill="#383838" points="314,266.5234,304,270.5234,314,274.5234,310,270.5234" style="stroke: #383838; stroke-width: 1.0;"/><line style="stroke: #383838; stroke-width: 1.0;" x1="308" x2="774" y1="270.5234" y2="270.5234"/><text fill="#000000" font-family="Courier" font-size="13" lengthAdjust="spacingAndGlyphs" textLength="216" x="320" y="265.4575">Returns the rendered graphs​</text></g></svg>