<?xml version="1.0" encoding="UTF-8" standalone="no"?><svg xmlns="http://www.w3.org/2000/svg" xmlns:xlink="http://www.w3.org/1999/xlink" contentScriptType="application/ecmascript" contentStyleType="text/css" height="494px" preserveAspectRatio="none" style="width:2453px;height:494px;" version="1.1" viewBox="0 0 2453 494" width="2453px" zoomAndPan="magnify"><defs/><g><rect fill="#0AA60F" height="36.2969" style="stroke: #000000; stroke-width: 1.5;" width="92" x="2342" y="8"/><text fill="#000000" font-family="Courier" font-size="14" lengthAdjust="spacingAndGlyphs" textLength="72" x="2352" y="30.9951">Exclusive</text><rect fill="#FF5733" height="36.2969" style="stroke: #000000; stroke-width: 1.5;" width="108" x="2334" y="105"/><text fill="#000000" font-family="Courier" font-size="14" lengthAdjust="spacingAndGlyphs" textLength="88" x="2344" y="127.9951">Competition</text><rect fill="#FEFECE" height="36.2969" style="stroke: #000000; stroke-width: 1.5;" width="52" x="2362" y="218"/><text fill="#000000" font-family="Courier" font-size="14" lengthAdjust="spacingAndGlyphs" textLength="32" x="2372" y="240.9951">Both</text><rect fill="#FEFECE" height="36.2969" style="stroke: #000000; stroke-width: 1.5;" width="92" x="1733" y="8"/><text fill="#000000" font-family="Courier" font-size="14" lengthAdjust="spacingAndGlyphs" textLength="72" x="1743" y="30.9951">FruitDash</text><rect fill="#FEFECE" height="36.2969" style="stroke: #000000; stroke-width: 1.5;" width="132" x="466" y="105"/><text fill="#000000" font-family="Courier" font-size="14" lengthAdjust="spacingAndGlyphs" textLength="112" x="476" y="127.9951">Authentication</text><rect fill="#FEFECE" height="36.2969" style="stroke: #000000; stroke-width: 1.5;" width="124" x="1978" y="105"/><text fill="#000000" font-family="Courier" font-size="14" lengthAdjust="spacingAndGlyphs" textLength="104" x="1988" y="127.9951">Authorization</text><rect fill="#FEFECE" height="36.2969" style="stroke: #000000; stroke-width: 1.5;" width="92" x="1343" y="105"/><text fill="#000000" font-family="Courier" font-size="14" lengthAdjust="spacingAndGlyphs" textLength="72" x="1353" y="127.9951">Home Page</text><rect fill="#0AA60F" height="36.2969" style="stroke: #000000; stroke-width: 1.5;" width="140" x="2152" y="105"/><text fill="#000000" font-family="Courier" font-size="14" lengthAdjust="spacingAndGlyphs" textLength="120" x="2162" y="127.9951">Graph Extractor</text><rect fill="#FF5733" height="36.2969" style="stroke: #000000; stroke-width: 1.5;" width="300" x="1629" y="105"/><text fill="#000000" font-family="Courier" font-size="14" lengthAdjust="spacingAndGlyphs" textLength="280" x="1639" y="127.9951">Natural Language Based Search Query</text><rect fill="#FEFECE" height="36.2969" style="stroke: #000000; stroke-width: 1.5;" width="84" x="490" y="218"/><text fill="#000000" font-family="Courier" font-size="14" lengthAdjust="spacingAndGlyphs" textLength="64" x="500" y="240.9951">1-factor</text><rect fill="#FEFECE" height="36.2969" style="stroke: #000000; stroke-width: 1.5;" width="92" x="297" y="218"/><text fill="#000000" font-family="Courier" font-size="14" lengthAdjust="spacingAndGlyphs" textLength="72" x="307" y="240.9951">2-factors</text><rect fill="#FEFECE" height="36.2969" style="stroke: #000000; stroke-width: 1.5;" width="52" x="2055" y="218"/><text fill="#000000" font-family="Courier" font-size="14" lengthAdjust="spacingAndGlyphs" textLength="32" x="2065" y="240.9951">Role</text><rect fill="#FEFECE" height="36.2969" style="stroke: #000000; stroke-width: 1.5;" width="148" x="1490" y="218"/><text fill="#000000" font-family="Courier" font-size="14" lengthAdjust="spacingAndGlyphs" textLength="128" x="1500" y="240.9951">Search Input Box</text><rect fill="#FEFECE" height="36.2969" style="stroke: #000000; stroke-width: 1.5;" width="132" x="1323" y="218"/><text fill="#000000" font-family="Courier" font-size="14" lengthAdjust="spacingAndGlyphs" textLength="112" x="1333" y="240.9951">Data Displayer</text><rect fill="#FEFECE" height="36.2969" style="stroke: #000000; stroke-width: 1.5;" width="132" x="1077" y="218"/><text fill="#000000" font-family="Courier" font-size="14" lengthAdjust="spacingAndGlyphs" textLength="112" x="1087" y="240.9951">Data Extractor</text><rect fill="#FEFECE" height="36.2969" style="stroke: #000000; stroke-width: 1.5;" width="44" x="1244" y="218"/><text fill="#000000" font-family="Courier" font-size="14" lengthAdjust="spacingAndGlyphs" textLength="24" x="1254" y="240.9951">KPI</text><rect fill="#0AA60F" height="36.2969" style="stroke: #000000; stroke-width: 1.5;" width="132" x="2187" y="218"/><text fill="#000000" font-family="Courier" font-size="14" lengthAdjust="spacingAndGlyphs" textLength="112" x="2197" y="240.9951">Graph provider</text><rect fill="#FEFECE" height="36.2969" style="stroke: #000000; stroke-width: 1.5;" width="84" x="459" y="315"/><text fill="#000000" font-family="Courier" font-size="14" lengthAdjust="spacingAndGlyphs" textLength="64" x="469" y="337.9951">Password</text><rect fill="#FEFECE" height="36.2969" style="stroke: #000000; stroke-width: 1.5;" width="100" x="578" y="315"/><text fill="#000000" font-family="Courier" font-size="14" lengthAdjust="spacingAndGlyphs" textLength="80" x="588" y="337.9951">Biometrics</text><rect fill="#FEFECE" height="36.2969" style="stroke: #000000; stroke-width: 1.5;" width="84" x="205" y="315"/><text fill="#000000" font-family="Courier" font-size="14" lengthAdjust="spacingAndGlyphs" textLength="64" x="215" y="337.9951">SMS Code</text><rect fill="#FEFECE" height="36.2969" style="stroke: #000000; stroke-width: 1.5;" width="100" x="324" y="315"/><text fill="#000000" font-family="Courier" font-size="14" lengthAdjust="spacingAndGlyphs" textLength="80" x="334" y="337.9951">Email Code</text><rect fill="#FEFECE" height="36.2969" style="stroke: #000000; stroke-width: 1.5;" width="164" x="6" y="315"/><text fill="#000000" font-family="Courier" font-size="14" lengthAdjust="spacingAndGlyphs" textLength="144" x="16" y="337.9951">Security Questions</text><rect fill="#FEFECE" height="36.2969" style="stroke: #000000; stroke-width: 1.5;" width="116" x="1430" y="315"/><text fill="#000000" font-family="Courier" font-size="14" lengthAdjust="spacingAndGlyphs" textLength="96" x="1440" y="337.9951">Tabular data</text><rect fill="#FEFECE" height="36.2969" style="stroke: #000000; stroke-width: 1.5;" width="132" x="1647" y="315"/><text fill="#000000" font-family="Courier" font-size="14" lengthAdjust="spacingAndGlyphs" textLength="112" x="1657" y="337.9951">Visualizations</text><rect fill="#FEFECE" height="36.2969" style="stroke: #000000; stroke-width: 1.5;" width="76" x="2128" y="315"/><text fill="#000000" font-family="Courier" font-size="14" lengthAdjust="spacingAndGlyphs" textLength="56" x="2138" y="337.9951">Analyst</text><rect fill="#FEFECE" height="36.2969" style="stroke: #000000; stroke-width: 1.5;" width="76" x="2017" y="315"/><text fill="#000000" font-family="Courier" font-size="14" lengthAdjust="spacingAndGlyphs" textLength="56" x="2027" y="337.9951">Manager</text><rect fill="#FEFECE" height="36.2969" style="stroke: #000000; stroke-width: 1.5;" width="124" x="1858" y="315"/><text fill="#000000" font-family="Courier" font-size="14" lengthAdjust="spacingAndGlyphs" textLength="104" x="1868" y="337.9951">Administrator</text><rect fill="#FF5733" height="36.2969" style="stroke: #000000; stroke-width: 1.5;" width="100" x="1920" y="218"/><text fill="#000000" font-family="Courier" font-size="14" lengthAdjust="spacingAndGlyphs" textLength="80" x="1930" y="240.9951">User input</text><rect fill="#0AA60F" height="36.2969" style="stroke: #000000; stroke-width: 1.5;" width="212" x="1673" y="218"/><text fill="#000000" font-family="Courier" font-size="14" lengthAdjust="spacingAndGlyphs" textLength="192" x="1683" y="240.9951">App generated suggestion</text><rect fill="#FEFECE" height="36.2969" style="stroke: #000000; stroke-width: 1.5;" width="124" x="2165" y="381"/><text fill="#000000" font-family="Courier" font-size="14" lengthAdjust="spacingAndGlyphs" textLength="104" x="2175" y="403.9951">User selected</text><rect fill="#FEFECE" height="36.2969" style="stroke: #000000; stroke-width: 1.5;" width="92" x="2110" y="447"/><text fill="#000000" font-family="Courier" font-size="14" lengthAdjust="spacingAndGlyphs" textLength="72" x="2120" y="469.9951">Approvals</text><rect fill="#FEFECE" height="36.2969" style="stroke: #000000; stroke-width: 1.5;" width="140" x="1850" y="447"/><text fill="#000000" font-family="Courier" font-size="14" lengthAdjust="spacingAndGlyphs" textLength="120" x="1860" y="469.9951">Role assignment</text><rect fill="#FEFECE" height="36.2969" style="stroke: #000000; stroke-width: 1.5;" width="84" x="1327" y="447"/><text fill="#000000" font-family="Courier" font-size="14" lengthAdjust="spacingAndGlyphs" textLength="64" x="1337" y="469.9951">Products</text><rect fill="#FEFECE" height="36.2969" style="stroke: #000000; stroke-width: 1.5;" width="84" x="1446" y="447"/><text fill="#000000" font-family="Courier" font-size="14" lengthAdjust="spacingAndGlyphs" textLength="64" x="1456" y="469.9951">Logistic</text><rect fill="#FEFECE" height="36.2969" style="stroke: #000000; stroke-width: 1.5;" width="76" x="1565" y="447"/><text fill="#000000" font-family="Courier" font-size="14" lengthAdjust="spacingAndGlyphs" textLength="56" x="1575" y="469.9951">Clients</text><rect fill="#FEFECE" height="36.2969" style="stroke: #000000; stroke-width: 1.5;" width="204" x="713" y="315"/><text fill="#000000" font-family="Courier" font-size="14" lengthAdjust="spacingAndGlyphs" textLength="184" x="723" y="337.9951">Most profitable clients</text><rect fill="#FEFECE" height="36.2969" style="stroke: #000000; stroke-width: 1.5;" width="188" x="952" y="315"/><text fill="#000000" font-family="Courier" font-size="14" lengthAdjust="spacingAndGlyphs" textLength="168" x="962" y="337.9951">Most ordered products</text><rect fill="#FEFECE" height="36.2969" style="stroke: #000000; stroke-width: 1.5;" width="220" x="1175" y="315"/><text fill="#000000" font-family="Courier" font-size="14" lengthAdjust="spacingAndGlyphs" textLength="200" x="1185" y="337.9951">Running quaterly revenues</text><path d="M2388,57.71 C2388,73.27 2388,91.59 2388,104.69 " fill="none" id="EXCL&lt;-COMP" style="stroke: #A80036; stroke-width: 1.0;"/><polygon fill="#A80036" points="2388,44.42,2384,50.42,2388,56.42,2392,50.42,2388,44.42" style="stroke: #A80036; stroke-width: 1.0;"/><path d="M2388,154.36 C2388,174.75 2388,200.88 2388,217.78 " fill="none" id="COMP&lt;-BOTH" style="stroke: #A80036; stroke-width: 1.0;"/><polygon fill="#A80036" points="2388,141.34,2384,147.34,2388,153.34,2392,147.34,2388,141.34" style="stroke: #A80036; stroke-width: 1.0;"/><path d="M1732.77,30.52 C1546.41,44.72 849.04,97.85 611.68,115.93 " fill="none" id="FD-&gt;AUTHC" style="stroke: #A80036; stroke-width: 1.0;"/><polygon fill="#A80036" points="598.39,116.94,604.6761,120.4733,610.3554,116.0297,604.0693,112.4964,598.39,116.94" style="stroke: #A80036; stroke-width: 1.0;"/><path d="M1825.06,43.77 C1868.36,59.53 1933.39,83.2 1980.58,100.37 " fill="none" id="FD-&gt;AUTHR" style="stroke: #A80036; stroke-width: 1.0;"/><polygon fill="#A80036" points="1993.08,104.92,1988.8088,99.11,1981.8029,100.818,1986.0741,106.6281,1993.08,104.92" style="stroke: #A80036; stroke-width: 1.0;"/><path d="M1732.73,38.27 C1661.78,55.55 1526.14,88.59 1448.14,107.59 " fill="none" id="FD-&gt;HP" style="stroke: #A80036; stroke-width: 1.0;"/><polygon fill="#A80036" points="1435.21,110.74,1441.988,113.2015,1446.8671,107.8917,1440.0891,105.4301,1435.21,110.74" style="stroke: #A80036; stroke-width: 1.0;"/><path d="M1825.16,36.9 C1901.39,53.25 2054.32,86.04 2146.48,105.8 " fill="none" id="FD-&gt;GE" style="stroke: #A80036; stroke-width: 1.0;"/><ellipse cx="2145.7757" cy="105.6411" fill="#FFFFFF" rx="6" ry="6" style="stroke: #A80036; stroke-width: 1.5;"/><path d="M1779,44.42 C1779,59.96 1779,82.78 1779,99.66 " fill="none" id="FD-&gt;NLBS" style="stroke: #A80036; stroke-width: 1.0;"/><ellipse cx="1779" cy="98.69" fill="#FFFFFF" rx="6" ry="6" style="stroke: #A80036; stroke-width: 1.5;"/><path d="M532,154.36 C532,174.75 532,200.88 532,217.78 " fill="none" id="AUTHC&lt;-1F" style="stroke: #A80036; stroke-width: 1.0;"/><polygon fill="#A80036" points="532,141.34,528,147.34,532,153.34,536,147.34,532,141.34" style="stroke: #A80036; stroke-width: 1.0;"/><path d="M491.36,147.87 C455.49,168.93 404.07,199.13 372.15,217.88 " fill="none" id="AUTHC&lt;-2F" style="stroke: #A80036; stroke-width: 1.0;"/><polygon fill="#A80036" points="502.88,141.1,495.6806,140.6892,492.5324,147.1768,499.7318,147.5876,502.88,141.1" style="stroke: #A80036; stroke-width: 1.0;"/><path d="M389.23,236 C418.14,236 455.29,236 484.45,236 " fill="none" id="2F-&gt;1F" style="stroke: #A80036; stroke-width: 1.0; stroke-dasharray: 1.0,3.0;"/><polygon fill="#A80036" points="489.79,236,480.79,232,484.79,236,480.79,240,489.79,236" style="stroke: #A80036; stroke-width: 1.0;"/><text fill="#000000" font-family="Courier" font-size="13" lengthAdjust="spacingAndGlyphs" textLength="64" x="407.5" y="229.0669">requires</text><path d="M2051,153.77 C2058.56,174.25 2068.34,200.72 2074.64,217.78 " fill="none" id="AUTHR&lt;-ROLE" style="stroke: #A80036; stroke-width: 1.0;"/><polygon fill="#A80036" points="2046.41,141.34,2044.7408,148.3552,2050.5743,152.5943,2052.2436,145.579,2046.41,141.34" style="stroke: #A80036; stroke-width: 1.0;"/><path d="M1415.96,141.1 C1447.43,161.06 1499.4,194.03 1532.65,215.11 " fill="none" id="HP-&gt;SEARCH" style="stroke: #A80036; stroke-width: 1.0;"/><ellipse cx="1531.9375" cy="214.6754" fill="#FFFFFF" rx="6" ry="6" style="stroke: #A80036; stroke-width: 1.5;"/><path d="M1360.11,150.07 C1337,170.92 1305.25,199.58 1285.17,217.7 " fill="none" id="HP&lt;-KPI" style="stroke: #A80036; stroke-width: 1.0;"/><polygon fill="#A80036" points="1370.05,141.1,1362.9157,142.1499,1361.141,149.1392,1368.2752,148.0893,1370.05,141.1" style="stroke: #A80036; stroke-width: 1.0;"/><path d="M1389,154.36 C1389,174.75 1389,200.88 1389,217.78 " fill="none" id="HP&lt;-DD" style="stroke: #A80036; stroke-width: 1.0;"/><polygon fill="#A80036" points="1389,141.34,1385,147.34,1389,153.34,1393,147.34,1389,141.34" style="stroke: #A80036; stroke-width: 1.0;"/><path d="M1339.12,146.5 C1292.34,167.61 1223.4,198.72 1180.94,217.88 " fill="none" id="HP&lt;-DE" style="stroke: #A80036; stroke-width: 1.0;"/><polygon fill="#A80036" points="1351.1,141.1,1343.9859,139.9213,1340.1616,146.0348,1347.2758,147.2135,1351.1,141.1" style="stroke: #A80036; stroke-width: 1.0;"/><path d="M1745.88,141.1 C1707.05,161.14 1642.84,194.3 1602.02,215.37 " fill="none" id="NLBS-&gt;SEARCH" style="stroke: #A80036; stroke-width: 1.0; stroke-dasharray: 1.0,3.0;"/><polygon fill="#A80036" points="1597.16,217.88,1606.9914,217.2946,1601.6003,215.5813,1603.3136,210.1902,1597.16,217.88" style="stroke: #A80036; stroke-width: 1.0;"/><text fill="#000000" font-family="Courier" font-size="13" lengthAdjust="spacingAndGlyphs" textLength="64" x="1686" y="184.0669">requires</text><path d="M2230.4,154.07 C2236.1,174.5 2243.45,200.8 2248.19,217.78 " fill="none" id="GE&lt;-GP" style="stroke: #A80036; stroke-width: 1.0;"/><polygon fill="#A80036" points="2226.84,141.34,2224.6039,148.1956,2230.0721,152.8965,2232.3082,146.0409,2226.84,141.34" style="stroke: #A80036; stroke-width: 1.0;"/><path d="M522.13,267.24 C517.02,282.9 510.97,301.46 506.65,314.69 " fill="none" id="1F&lt;-PWD" style="stroke: #A80036; stroke-width: 1.0;"/><polygon fill="#A80036" points="526.31,254.42,520.6473,258.8847,522.5905,265.829,528.2533,261.3643,526.31,254.42" style="stroke: #A80036; stroke-width: 1.0;"/><path d="M559.24,263.96 C575.7,280.25 596.19,300.52 610.5,314.69 " fill="none" id="1F&lt;-BIO" style="stroke: #A80036; stroke-width: 1.0;"/><polygon fill="#FFFFFF" points="549.61,254.42,551.0627,261.4833,558.1413,262.859,556.6887,255.7957,549.61,254.42" style="stroke: #A80036; stroke-width: 1.0;"/><path d="M315.76,263.96 C299.3,280.25 278.81,300.52 264.5,314.69 " fill="none" id="2F&lt;-SMS" style="stroke: #A80036; stroke-width: 1.0;"/><polygon fill="#FFFFFF" points="325.39,254.42,318.3113,255.7957,316.8587,262.859,323.9373,261.4833,325.39,254.42" style="stroke: #A80036; stroke-width: 1.0;"/><path d="M352.87,267.24 C357.98,282.9 364.03,301.46 368.35,314.69 " fill="none" id="2F&lt;-EMAIL" style="stroke: #A80036; stroke-width: 1.0;"/><polygon fill="#FFFFFF" points="348.69,254.42,346.7467,261.3643,352.4095,265.829,354.3527,258.8847,348.69,254.42" style="stroke: #A80036; stroke-width: 1.0;"/><path d="M284.7,258.72 C238.96,275.76 176.17,299.15 133.94,314.88 " fill="none" id="2F&lt;-SQ" style="stroke: #A80036; stroke-width: 1.0;"/><polygon fill="#FFFFFF" points="297.12,254.09,290.1024,252.4307,285.8716,258.2702,292.8892,259.9296,297.12,254.09" style="stroke: #A80036; stroke-width: 1.0;"/><path d="M1416.62,263.5 C1433.67,279.86 1455.06,300.39 1469.96,314.69 " fill="none" id="DD&lt;-LD" style="stroke: #A80036; stroke-width: 1.0;"/><polygon fill="#A80036" points="1407.16,254.42,1408.7222,261.4598,1415.8214,262.7254,1414.2592,255.6856,1407.16,254.42" style="stroke: #A80036; stroke-width: 1.0;"/><path d="M1460.14,257.86 C1518.58,274.99 1600.34,298.97 1654.9,314.96 " fill="none" id="DD&lt;-VIS" style="stroke: #A80036; stroke-width: 1.0;"/><polygon fill="#A80036" points="1447.3,254.09,1451.932,259.6167,1458.8151,257.4667,1454.1831,251.94,1447.3,254.09" style="stroke: #A80036; stroke-width: 1.0;"/><path d="M1546.24,333 C1575.28,333 1610.68,333 1641.38,333 " fill="none" id="LD-&gt;VIS" style="stroke: #A80036; stroke-width: 1.0; stroke-dasharray: 1.0,3.0;"/><polygon fill="#A80036" points="1646.65,333,1637.6615,328.9743,1641.65,332.9857,1637.6386,336.9743,1646.65,333" style="stroke: #A80036; stroke-width: 1.0;"/><text fill="#000000" font-family="Courier" font-size="13" lengthAdjust="spacingAndGlyphs" textLength="64" x="1564.5" y="326.0669">requires</text><path d="M2105.53,264.42 C2120.04,280.63 2137.96,300.66 2150.51,314.69 " fill="none" id="ROLE&lt;-ANA" style="stroke: #A80036; stroke-width: 1.0;"/><polygon fill="#FFFFFF" points="2096.59,254.42,2097.612,261.5583,2104.5942,263.3605,2103.5723,256.2222,2096.59,254.42" style="stroke: #A80036; stroke-width: 1.0;"/><path d="M2072.73,267.24 C2068.44,282.9 2063.36,301.46 2059.74,314.69 " fill="none" id="ROLE&lt;-MAN" style="stroke: #A80036; stroke-width: 1.0;"/><polygon fill="#FFFFFF" points="2076.23,254.42,2070.7895,259.153,2073.0659,265.9953,2078.5064,261.2624,2076.23,254.42" style="stroke: #A80036; stroke-width: 1.0;"/><path d="M2043.51,259.12 C2014.66,276.14 1975.39,299.32 1948.94,314.93 " fill="none" id="ROLE&lt;-ADMIN" style="stroke: #A80036; stroke-width: 1.0;"/><polygon fill="#FFFFFF" points="2054.77,252.47,2047.57,252.07,2044.4315,258.5623,2051.6315,258.9623,2054.77,252.47" style="stroke: #A80036; stroke-width: 1.0;"/><path d="M1820.07,147.87 C1856.32,168.93 1908.28,199.13 1940.54,217.88 " fill="none" id="NLBS&lt;-UI" style="stroke: #A80036; stroke-width: 1.0;"/><polygon fill="#A80036" points="1808.43,141.1,1811.61,147.5721,1818.8073,147.1259,1815.6273,140.6539,1808.43,141.1" style="stroke: #A80036; stroke-width: 1.0;"/><path d="M1779,154.36 C1779,174.75 1779,200.88 1779,217.78 " fill="none" id="NLBS&lt;-AGS" style="stroke: #A80036; stroke-width: 1.0;"/><polygon fill="#FFFFFF" points="1779,141.34,1775,147.34,1779,153.34,1783,147.34,1779,141.34" style="stroke: #A80036; stroke-width: 1.0;"/><path d="M2248.11,267.3 C2242.68,300.88 2234.13,353.86 2229.76,380.89 " fill="none" id="GP&lt;-US" style="stroke: #A80036; stroke-width: 1.0;"/><polygon fill="#A80036" points="2250.22,254.23,2245.3156,259.5165,2248.3092,266.0769,2253.2136,260.7904,2250.22,254.23" style="stroke: #A80036; stroke-width: 1.0;"/><path d="M2076.62,361.82 C2096.6,387.55 2125.68,424.97 2142.53,446.67 " fill="none" id="MAN&lt;-APPR" style="stroke: #A80036; stroke-width: 1.0;"/><polygon fill="#A80036" points="2068.41,351.26,2068.9286,358.4524,2075.7672,360.74,2075.2486,353.5476,2068.41,351.26" style="stroke: #A80036; stroke-width: 1.0;"/><path d="M1920,364.28 C1920,389.88 1920,425.65 1920,446.67 " fill="none" id="ADMIN&lt;-ROASS" style="stroke: #A80036; stroke-width: 1.0;"/><polygon fill="#A80036" points="1920,351.26,1916,357.26,1920,363.26,1924,357.26,1920,351.26" style="stroke: #A80036; stroke-width: 1.0;"/><path d="M2207.97,417.15 C2199.06,425.19 2188.37,434.83 2179,443.27 " fill="none" id="US-&gt;APPR" style="stroke: #A80036; stroke-width: 1.0; stroke-dasharray: 1.0,3.0;"/><polygon fill="#A80036" points="2175.08,446.8,2184.4455,443.7525,2178.7965,443.4552,2179.0938,437.8061,2175.08,446.8" style="stroke: #A80036; stroke-width: 1.0;"/><path d="M1463.16,361.14 C1439.6,386.88 1404.9,424.78 1384.87,446.67 " fill="none" id="LD&lt;-PROD" style="stroke: #A80036; stroke-width: 1.0;"/><polygon fill="#A80036" points="1472.2,351.26,1465.1998,352.9914,1464.1056,360.119,1471.1058,358.3876,1472.2,351.26" style="stroke: #A80036; stroke-width: 1.0;"/><path d="M1488,364.28 C1488,389.88 1488,425.65 1488,446.67 " fill="none" id="LD&lt;-LOG" style="stroke: #A80036; stroke-width: 1.0;"/><polygon fill="#A80036" points="1488,351.26,1484,357.26,1488,363.26,1492,357.26,1488,351.26" style="stroke: #A80036; stroke-width: 1.0;"/><path d="M1512,361.14 C1534.77,386.88 1568.3,424.78 1587.67,446.67 " fill="none" id="LD&lt;-CLI" style="stroke: #A80036; stroke-width: 1.0;"/><polygon fill="#A80036" points="1503.27,351.26,1504.247,358.4046,1511.2178,360.2507,1510.2408,353.1061,1503.27,351.26" style="stroke: #A80036; stroke-width: 1.0;"/><path d="M1231.62,252.16 C1229.73,252.82 1227.85,253.44 1226,254 C1169.62,271.11 1019.61,297.87 917.3,315.17 " fill="none" id="KPI&lt;-MPC" style="stroke: #A80036; stroke-width: 1.0;"/><polygon fill="#A80036" points="1243.89,247.39,1236.8478,245.8383,1232.7069,251.7419,1239.7491,253.2936,1243.89,247.39" style="stroke: #A80036; stroke-width: 1.0;"/><path d="M1231.57,251.87 C1192.07,268.92 1127.4,296.85 1085.78,314.82 " fill="none" id="KPI&lt;-MOP" style="stroke: #A80036; stroke-width: 1.0;"/><polygon fill="#A80036" points="1243.69,246.63,1236.5966,245.3323,1232.6705,251.3809,1239.7639,252.6786,1243.69,246.63" style="stroke: #A80036; stroke-width: 1.0;"/><path d="M1272.05,267.24 C1275.18,282.9 1278.89,301.46 1281.54,314.69 " fill="none" id="KPI&lt;-RYR" style="stroke: #A80036; stroke-width: 1.0;"/><polygon fill="#A80036" points="1269.48,254.42,1266.7301,261.0862,1271.8258,266.1885,1274.5757,259.5223,1269.48,254.42" style="stroke: #A80036; stroke-width: 1.0;"/></g></svg>