<?xml version="1.0" encoding="UTF-8" standalone="no"?><svg xmlns="http://www.w3.org/2000/svg" xmlns:xlink="http://www.w3.org/1999/xlink" contentScriptType="application/ecmascript" contentStyleType="text/css" height="582px" preserveAspectRatio="none" style="width:589px;height:582px;" version="1.1" viewBox="0 0 589 582" width="589px" zoomAndPan="magnify"><defs/><g><rect fill="#F8F8F8" height="36.4883" style="stroke: #383838; stroke-width: 1.5;" width="48" x="282" y="117"/><rect fill="#F8F8F8" height="5" style="stroke: #383838; stroke-width: 1.5;" width="10" x="277" y="122"/><rect fill="#F8F8F8" height="5" style="stroke: #383838; stroke-width: 1.5;" width="10" x="277" y="143.4883"/><text fill="#000000" font-family="sans-serif" font-size="14" lengthAdjust="spacingAndGlyphs" textLength="28" x="292" y="140.5352">App</text><rect fill="#F8F8F8" height="36.4883" style="stroke: #383838; stroke-width: 1.5;" width="61" x="418.5" y="117"/><rect fill="#F8F8F8" height="5" style="stroke: #383838; stroke-width: 1.5;" width="10" x="413.5" y="122"/><rect fill="#F8F8F8" height="5" style="stroke: #383838; stroke-width: 1.5;" width="10" x="413.5" y="143.4883"/><text fill="#000000" font-family="sans-serif" font-size="14" lengthAdjust="spacingAndGlyphs" textLength="41" x="428.5" y="140.5352">Driver</text><ellipse cx="374" cy="135" fill="#F8F8F8" rx="8" ry="8" style="stroke: #383838; stroke-width: 2.0;"/><rect fill="#F8F8F8" height="36.4883" style="stroke: #383838; stroke-width: 1.5;" width="73" x="505.5" y="304"/><rect fill="#F8F8F8" height="5" style="stroke: #383838; stroke-width: 1.5;" width="10" x="500.5" y="309"/><rect fill="#F8F8F8" height="5" style="stroke: #383838; stroke-width: 1.5;" width="10" x="500.5" y="330.4883"/><text fill="#000000" font-family="sans-serif" font-size="14" lengthAdjust="spacingAndGlyphs" textLength="53" x="515.5" y="327.5352">Spooler</text><ellipse cx="461" cy="322" fill="#F8F8F8" rx="8" ry="8" style="stroke: #383838; stroke-width: 2.0;"/><rect fill="#F8F8F8" height="36.4883" style="stroke: #383838; stroke-width: 1.5;" width="65" x="429.5" y="512.5"/><rect fill="#F8F8F8" height="5" style="stroke: #383838; stroke-width: 1.5;" width="10" x="424.5" y="517.5"/><rect fill="#F8F8F8" height="5" style="stroke: #383838; stroke-width: 1.5;" width="10" x="424.5" y="538.9883"/><text fill="#000000" font-family="sans-serif" font-size="14" lengthAdjust="spacingAndGlyphs" textLength="45" x="439.5" y="536.0352">Queue</text><ellipse cx="385" cy="530.5" fill="#F8F8F8" rx="8" ry="8" style="stroke: #383838; stroke-width: 2.0;"/><rect fill="#F8F8F8" height="36.4883" style="stroke: #383838; stroke-width: 1.5;" width="66" x="196" y="304"/><rect fill="#F8F8F8" height="5" style="stroke: #383838; stroke-width: 1.5;" width="10" x="191" y="309"/><rect fill="#F8F8F8" height="5" style="stroke: #383838; stroke-width: 1.5;" width="10" x="191" y="330.4883"/><text fill="#000000" font-family="sans-serif" font-size="14" lengthAdjust="spacingAndGlyphs" textLength="46" x="206" y="327.5352">Printer</text><ellipse cx="152" cy="322" fill="#F8F8F8" rx="8" ry="8" style="stroke: #383838; stroke-width: 2.0;"/><path d="M331.5,8 L331.5,56.6211 A0,0 0 0 0 331.5,56.6211 L370,56.6211 L374,125.69 L378,56.6211 L416.5,56.6211 A0,0 0 0 0 416.5,56.6211 L416.5,18 L406.5,8 L331.5,8 A0,0 0 0 0 331.5,8 " fill="#ECECEC" style="stroke: #383838; stroke-width: 1.0;"/><path d="M406.5,8 L406.5,18 L416.5,18 L406.5,8 " fill="#ECECEC" style="stroke: #383838; stroke-width: 1.0;"/><text fill="#000000" font-family="sans-serif" font-size="13" lengthAdjust="spacingAndGlyphs" textLength="64" x="337.5" y="25.5684">operation:</text><line style="stroke: #383838; stroke-width: 1.0; stroke-dasharray: 1.0,2.0;" x1="332.5" x2="415.5" y1="28.3105" y2="28.3105"/><text fill="#000000" font-family="sans-serif" font-size="13" lengthAdjust="spacingAndGlyphs" textLength="62" x="337.5" y="44.8789">print(PDF)</text><path d="M297.5,297.5 L297.5,346.1211 A0,0 0 0 0 297.5,346.1211 L416.5,346.1211 A0,0 0 0 0 416.5,346.1211 L416.5,326 L451.66,322 L416.5,318 L416.5,307.5 L406.5,297.5 L297.5,297.5 A0,0 0 0 0 297.5,297.5 " fill="#ECECEC" style="stroke: #383838; stroke-width: 1.0;"/><path d="M406.5,297.5 L406.5,307.5 L416.5,307.5 L406.5,297.5 " fill="#ECECEC" style="stroke: #383838; stroke-width: 1.0;"/><text fill="#000000" font-family="sans-serif" font-size="13" lengthAdjust="spacingAndGlyphs" textLength="64" x="303.5" y="315.0684">operation:</text><line style="stroke: #383838; stroke-width: 1.0; stroke-dasharray: 1.0,2.0;" x1="298.5" x2="415.5" y1="317.8105" y2="317.8105"/><text fill="#000000" font-family="sans-serif" font-size="13" lengthAdjust="spacingAndGlyphs" textLength="98" x="303.5" y="334.3789">scheduleJob(PS)</text><path d="M249,491 L249,570.2422 A0,0 0 0 0 249,570.2422 L341,570.2422 A0,0 0 0 0 341,570.2422 L341,534.5 L375.73,530.5 L341,526.5 L341,501 L331,491 L249,491 A0,0 0 0 0 249,491 " fill="#ECECEC" style="stroke: #383838; stroke-width: 1.0;"/><path d="M331,491 L331,501 L341,501 L331,491 " fill="#ECECEC" style="stroke: #383838; stroke-width: 1.0;"/><text fill="#000000" font-family="sans-serif" font-size="13" lengthAdjust="spacingAndGlyphs" textLength="71" x="255" y="508.5684">operations:</text><line style="stroke: #383838; stroke-width: 1.0; stroke-dasharray: 1.0,2.0;" x1="250" x2="340" y1="511.3105" y2="511.3105"/><text fill="#000000" font-family="sans-serif" font-size="13" lengthAdjust="spacingAndGlyphs" textLength="50" x="255" y="527.8789">post(PS)</text><text fill="#000000" font-family="sans-serif" font-size="13" lengthAdjust="spacingAndGlyphs" textLength="40" x="255" y="543.1895">get(id)</text><text fill="#000000" font-family="sans-serif" font-size="13" lengthAdjust="spacingAndGlyphs" textLength="58" x="255" y="558.5">delete(id)</text><path d="M6,213 L6,431.416 A0,0 0 0 0 6,431.416 L108,431.416 A0,0 0 0 0 108,431.416 L108,326 L142.76,322 L108,318 L108,223 L98,213 L6,213 A0,0 0 0 0 6,213 " fill="#ECECEC" style="stroke: #383838; stroke-width: 1.0;"/><path d="M98,213 L98,223 L108,223 L98,213 " fill="#ECECEC" style="stroke: #383838; stroke-width: 1.0;"/><text fill="#000000" font-family="sans-serif" font-size="13" lengthAdjust="spacingAndGlyphs" textLength="64" x="12" y="230.5684">operation:</text><line style="stroke: #383838; stroke-width: 1.0; stroke-dasharray: 1.0,2.0;" x1="7" x2="107" y1="233.3105" y2="233.3105"/><text fill="#000000" font-family="sans-serif" font-size="13" lengthAdjust="spacingAndGlyphs" textLength="50" x="12" y="249.8789">print(id)</text><text fill="#000000" font-family="sans-serif" font-size="13" lengthAdjust="spacingAndGlyphs" textLength="0" x="16" y="265.1895"/><line style="stroke: #383838; stroke-width: 1.0;" x1="7" x2="107" y1="271.9316" y2="271.9316"/><text fill="#000000" font-family="sans-serif" font-size="13" lengthAdjust="spacingAndGlyphs" textLength="45" x="12" y="288.5">events:</text><line style="stroke: #383838; stroke-width: 1.0; stroke-dasharray: 1.0,2.0;" x1="7" x2="107" y1="295.2422" y2="295.2422"/><text fill="#000000" font-family="sans-serif" font-size="13" lengthAdjust="spacingAndGlyphs" textLength="81" x="12" y="311.8105">print_started</text><text fill="#000000" font-family="sans-serif" font-size="13" lengthAdjust="spacingAndGlyphs" textLength="68" x="12" y="327.1211">print_done</text><text fill="#000000" font-family="sans-serif" font-size="13" lengthAdjust="spacingAndGlyphs" textLength="0" x="16" y="342.4316"/><line style="stroke: #383838; stroke-width: 1.0;" x1="7" x2="107" y1="349.1738" y2="349.1738"/><text fill="#000000" font-family="sans-serif" font-size="13" lengthAdjust="spacingAndGlyphs" textLength="68" x="12" y="365.7422">properties:</text><line style="stroke: #383838; stroke-width: 1.0; stroke-dasharray: 1.0,2.0;" x1="7" x2="107" y1="372.4844" y2="372.4844"/><text fill="#000000" font-family="sans-serif" font-size="13" lengthAdjust="spacingAndGlyphs" textLength="67" x="12" y="389.0527">paper_size</text><text fill="#000000" font-family="sans-serif" font-size="13" lengthAdjust="spacingAndGlyphs" textLength="32" x="12" y="404.3633">color</text><text fill="#000000" font-family="sans-serif" font-size="13" lengthAdjust="spacingAndGlyphs" textLength="43" x="12" y="419.6738">duplex</text><path d="M330.17,135 C338.28,135 346.38,135 354.49,135 " fill="none" id="App-&gt;iDriver" style="stroke: #383838; stroke-width: 1.0;"/><path d="M361.6939,126.5384 A9,9 0 0 0 361.6697 143.4528" fill="none" style="stroke: #383838; stroke-width: 1.5;"/><path d="M383.08,135 C394.84,135 406.6,135 418.36,135 " fill="none" id="iDriver-Driver" style="stroke: #383838; stroke-width: 1.0;"/><path d="M330.03,147.64 C363.11,164.13 420.19,194.34 434,213 C453.87,239.85 459.22,279.66 460.59,302.7 " fill="none" id="App-&gt;iSpooler" style="stroke: #383838; stroke-width: 1.0;"/><path d="M469.3273,309.3858 A9,9 0 0 0 452.4263 310.0628" fill="none" style="stroke: #383838; stroke-width: 1.5;"/><path d="M470.18,322 C481.87,322 493.56,322 505.25,322 " fill="none" id="iSpooler-Spooler" style="stroke: #383838; stroke-width: 1.0;"/><path d="M536.16,340.05 C527.89,362.53 511.16,402.55 488,431 C460.84,464.38 441.56,459.72 412,491 C405.83,497.53 399.98,505.55 395.31,512.59 " fill="none" id="Spooler-&gt;iQueue" style="stroke: #383838; stroke-width: 1.0;"/><path d="M398.5502,523.252 A9,9 0 0 0 384.2682 514.1898" fill="none" style="stroke: #383838; stroke-width: 1.5;"/><path d="M394.02,530.5 C405.8,530.5 417.57,530.5 429.34,530.5 " fill="none" id="iQueue-Queue" style="stroke: #383838; stroke-width: 1.0;"/><path d="M234.25,340.11 C241.76,362.65 257.24,402.74 280,431 C307.44,465.06 327.76,459.4 358,491 C364.21,497.49 370.07,505.51 374.73,512.55 " fill="none" id="Printer-&gt;iQueue" style="stroke: #383838; stroke-width: 1.0;"/><path d="M385.7759,514.1806 A9,9 0 0 0 371.476 523.2147" fill="none" style="stroke: #383838; stroke-width: 1.5;"/><path d="M161.02,322 C172.62,322 184.21,322 195.81,322 " fill="none" id="iPrinter-Printer" style="stroke: #383838; stroke-width: 1.0;"/><path d="M281.97,143.91 C252.81,154.77 204.3,177.13 178,213 C158.29,239.87 153.34,279.68 152.21,302.71 " fill="none" id="App-&gt;iPrinter" style="stroke: #383838; stroke-width: 1.0;"/><path d="M160.4559,309.9772 A9,9 0 0 0 143.549 309.4692" fill="none" style="stroke: #383838; stroke-width: 1.5;"/></g></svg>