<?xml version="1.0" encoding="UTF-8" standalone="no"?><svg xmlns="http://www.w3.org/2000/svg" xmlns:xlink="http://www.w3.org/1999/xlink" contentScriptType="application/ecmascript" contentStyleType="text/css" height="212px" preserveAspectRatio="none" style="width:206px;height:212px;" version="1.1" viewBox="0 0 206 212" width="206px" zoomAndPan="magnify"><defs/><g><rect fill="#FFFFFF" height="177" style="stroke: #000000; stroke-width: 1.5;" width="68" x="22" y="24"/><rect fill="#FFFFFF" height="10" style="stroke: #000000; stroke-width: 1.5;" width="15" x="70" y="29"/><rect fill="#FFFFFF" height="2" style="stroke: #000000; stroke-width: 1.5;" width="4" x="68" y="31"/><rect fill="#FFFFFF" height="2" style="stroke: #000000; stroke-width: 1.5;" width="4" x="68" y="35"/><text fill="#000000" font-family="Courier" font-size="14" font-weight="bold" lengthAdjust="spacingAndGlyphs" textLength="8" x="52" y="47.5547">C</text><rect fill="#F8F8F8" height="34" style="stroke: #383838; stroke-width: 1.5;" width="28" x="42" y="57"/><rect fill="#F8F8F8" height="5" style="stroke: #383838; stroke-width: 1.5;" width="10" x="37" y="62"/><rect fill="#F8F8F8" height="5" style="stroke: #383838; stroke-width: 1.5;" width="10" x="37" y="81"/><text fill="#000000" font-family="Courier" font-size="14" lengthAdjust="spacingAndGlyphs" textLength="8" x="52" y="77.5547">S</text><rect fill="#F8F8F8" height="34" style="stroke: #383838; stroke-width: 1.5;" width="36" x="38" y="151"/><rect fill="#F8F8F8" height="5" style="stroke: #383838; stroke-width: 1.5;" width="10" x="33" y="156"/><rect fill="#F8F8F8" height="5" style="stroke: #383838; stroke-width: 1.5;" width="10" x="33" y="175"/><text fill="#000000" font-family="Courier" font-size="14" lengthAdjust="spacingAndGlyphs" textLength="16" x="48" y="171.5547">S2</text><ellipse cx="115" cy="74" fill="#F8F8F8" rx="8" ry="8" style="stroke: #383838; stroke-width: 2.0;"/><text fill="#000000" font-family="Courier" font-size="14" lengthAdjust="spacingAndGlyphs" textLength="8" x="111" y="101.5547">I</text><rect fill="#F8F8F8" height="34" style="stroke: #383838; stroke-width: 1.5;" width="36" x="159" y="57"/><rect fill="#F8F8F8" height="5" style="stroke: #383838; stroke-width: 1.5;" width="10" x="154" y="62"/><rect fill="#F8F8F8" height="5" style="stroke: #383838; stroke-width: 1.5;" width="10" x="154" y="81"/><text fill="#000000" font-family="Courier" font-size="14" lengthAdjust="spacingAndGlyphs" textLength="16" x="169" y="77.5547">C2</text><path d="M56,91.03 C56,107.81 56,134.02 56,150.85 " fill="none" id="S-S2" style="stroke: #383838; stroke-width: 1.0;"/><path d="M63.0711,113.8502 A10,10 0 0 0 48.9289 113.8502" fill="#FFFFFF" style="stroke: #383838; stroke-width: 1.5;"/><ellipse cx="56" cy="120.9213" fill="#FFFFFF" rx="6" ry="6" style="stroke: #383838; stroke-width: 1.5;"/><path d="M70.29,74 C82.17,74 94.04,74 105.92,74 " fill="none" id="S-I" style="stroke: #383838; stroke-width: 1.0;"/><path d="M134.22,74 C142.43,74 150.64,74 158.85,74 " fill="none" id="I&lt;-C2" style="stroke: #383838; stroke-width: 1.0;"/><path d="M127.2782,82.4572 A9,9 0 0 0 127.2782 65.5428" fill="none" style="stroke: #383838; stroke-width: 1.5;"/></g></svg>