<?xml version="1.0" encoding="UTF-8" standalone="no"?><svg xmlns="http://www.w3.org/2000/svg" xmlns:xlink="http://www.w3.org/1999/xlink" contentScriptType="application/ecmascript" contentStyleType="text/css" height="416px" preserveAspectRatio="none" style="width:421px;height:416px;" version="1.1" viewBox="0 0 421 416" width="421px" zoomAndPan="magnify"><defs/><g><rect fill="#FFFFFF" height="62.9766" style="stroke: #444444; stroke-width: 1.0; stroke-dasharray: 7.0,7.0;" width="110" x="140" y="185"/><text fill="#000000" font-family="sans-serif" font-size="0" font-style="italic" lengthAdjust="spacingAndGlyphs" textLength="0" x="195" y="195">«boundary»</text><text fill="#444444" font-family="sans-serif" font-size="16" font-weight="bold" lengthAdjust="spacingAndGlyphs" textLength="90" x="150" y="220.4688">Dashboard</text><text fill="#444444" font-family="sans-serif" font-size="12" lengthAdjust="spacingAndGlyphs" textLength="48" x="171" y="235.4453">[System]</text><rect fill="#08427B" height="85.9531" style="stroke: #073B6F; stroke-width: 1.5;" width="81" x="24.5" y="8"/><text fill="#FFFFFF" font-family="sans-serif" font-size="12" font-style="italic" lengthAdjust="spacingAndGlyphs" textLength="52" x="39" y="29.6016">«person»</text><text fill="#FFFFFF" font-family="sans-serif" font-size="16" font-weight="bold" lengthAdjust="spacingAndGlyphs" textLength="61" x="34.5" y="47.6016">Analyst</text><text fill="#FFFFFF" font-family="sans-serif" font-size="14" lengthAdjust="spacingAndGlyphs" textLength="0" x="67" y="64.5117"/><text fill="#FFFFFF" font-family="sans-serif" font-size="14" lengthAdjust="spacingAndGlyphs" textLength="0" x="67" y="81"/><rect fill="#08427B" height="85.9531" style="stroke: #073B6F; stroke-width: 1.5;" width="91" x="149.5" y="8"/><text fill="#FFFFFF" font-family="sans-serif" font-size="12" font-style="italic" lengthAdjust="spacingAndGlyphs" textLength="52" x="169" y="29.6016">«person»</text><text fill="#FFFFFF" font-family="sans-serif" font-size="16" font-weight="bold" lengthAdjust="spacingAndGlyphs" textLength="71" x="159.5" y="47.6016">Manager</text><text fill="#FFFFFF" font-family="sans-serif" font-size="14" lengthAdjust="spacingAndGlyphs" textLength="0" x="197" y="64.5117"/><text fill="#FFFFFF" font-family="sans-serif" font-size="14" lengthAdjust="spacingAndGlyphs" textLength="0" x="197" y="81"/><rect fill="#08427B" height="85.9531" style="stroke: #073B6F; stroke-width: 1.5;" width="134" x="276" y="8"/><text fill="#FFFFFF" font-family="sans-serif" font-size="12" font-style="italic" lengthAdjust="spacingAndGlyphs" textLength="52" x="317" y="29.6016">«person»</text><text fill="#FFFFFF" font-family="sans-serif" font-size="16" font-weight="bold" lengthAdjust="spacingAndGlyphs" textLength="114" x="286" y="47.6016">Administrator</text><text fill="#FFFFFF" font-family="sans-serif" font-size="14" lengthAdjust="spacingAndGlyphs" textLength="0" x="345" y="64.5117"/><text fill="#FFFFFF" font-family="sans-serif" font-size="14" lengthAdjust="spacingAndGlyphs" textLength="0" x="345" y="81"/><rect fill="#999999" height="52.9766" style="stroke: #8A8A8A; stroke-width: 1.5;" width="186" x="6" y="353"/><text fill="#FFFFFF" font-family="sans-serif" font-size="12" font-style="italic" lengthAdjust="spacingAndGlyphs" textLength="105" x="46.5" y="374.6016">«external_system»</text><text fill="#FFFFFF" font-family="sans-serif" font-size="16" font-weight="bold" lengthAdjust="spacingAndGlyphs" textLength="166" x="16" y="392.6016">SQL Server Database</text><rect fill="#999999" height="52.9766" style="stroke: #8A8A8A; stroke-width: 1.5;" width="130" x="227" y="353"/><text fill="#FFFFFF" font-family="sans-serif" font-size="12" font-style="italic" lengthAdjust="spacingAndGlyphs" textLength="105" x="239.5" y="374.6016">«external_system»</text><text fill="#FFFFFF" font-family="sans-serif" font-size="16" font-weight="bold" lengthAdjust="spacingAndGlyphs" textLength="110" x="237" y="392.6016">Excel Plug-in</text><path d="M71.01,94.05 C75.54,114.09 83.4,137.46 97,155 C107.21,168.18 121.17,179.19 135.35,188.04 " fill="none" id="user_a-&gt;boundary" style="stroke: #666666; stroke-width: 1.0;"/><polygon fill="#666666" points="139.75,190.72,134.142,182.6237,135.479,188.1203,129.9824,189.4573,139.75,190.72" style="stroke: #666666; stroke-width: 1.0;"/><text fill="#666666" font-family="sans-serif" font-size="13" font-weight="bold" lengthAdjust="spacingAndGlyphs" textLength="55" x="114.5" y="137.5684">Analyze</text><text fill="#666666" font-family="sans-serif" font-size="12" font-style="italic" lengthAdjust="spacingAndGlyphs" textLength="88" x="98" y="151.9121">[business data]</text><path d="M195,94.11 C195,120.61 195,154.44 195,179.65 " fill="none" id="user_m-&gt;boundary" style="stroke: #666666; stroke-width: 1.0;"/><polygon fill="#666666" points="195,184.9,199,175.9,195,179.9,191,175.9,195,184.9" style="stroke: #666666; stroke-width: 1.0;"/><text fill="#666666" font-family="sans-serif" font-size="13" font-weight="bold" lengthAdjust="spacingAndGlyphs" textLength="40" x="208.5" y="137.5684">Sends</text><text fill="#666666" font-family="sans-serif" font-size="12" font-style="italic" lengthAdjust="spacingAndGlyphs" textLength="65" x="196" y="151.9121">[approvals]</text><path d="M317,94.1 C304.03,113.59 287.41,136.47 270,155 C261.3,164.26 251.17,173.34 241.21,181.55 " fill="none" id="user_ad-&gt;boundary" style="stroke: #666666; stroke-width: 1.0;"/><polygon fill="#666666" points="237.26,184.77,246.7674,182.1991,241.1406,181.617,241.7227,175.9902,237.26,184.77" style="stroke: #666666; stroke-width: 1.0;"/><text fill="#666666" font-family="sans-serif" font-size="13" font-weight="bold" lengthAdjust="spacingAndGlyphs" textLength="20" x="303" y="137.5684">Set</text><text fill="#666666" font-family="sans-serif" font-size="12" font-style="italic" lengthAdjust="spacingAndGlyphs" textLength="36" x="295" y="151.9121">[roles]</text><path d="M139.8,241.93 C125.35,251.1 111.47,263.02 103,278 C91.12,299.02 90.91,326.66 93.22,347.63 " fill="none" id="boundary-&gt;sql" style="stroke: #666666; stroke-width: 1.0;"/><polygon fill="#666666" points="93.86,352.81,96.7261,343.3874,93.2468,347.8477,88.7865,344.3685,93.86,352.81" style="stroke: #666666; stroke-width: 1.0;"/><text fill="#666666" font-family="sans-serif" font-size="13" font-weight="bold" lengthAdjust="spacingAndGlyphs" textLength="96" x="128" y="291.5684">Import/Export</text><text fill="#666666" font-family="sans-serif" font-size="12" font-style="italic" lengthAdjust="spacingAndGlyphs" textLength="140" x="104" y="305.9121">[Orders, Clients, Logistic</text><text fill="#666666" font-family="sans-serif" font-size="12" font-style="italic" lengthAdjust="spacingAndGlyphs" textLength="31" x="160.5" y="320.0449">Data]</text><path d="M228.87,248.14 C237.52,257.16 246.28,267.45 253,278 C266.87,299.77 277.12,327.26 283.62,347.98 " fill="none" id="boundary-&gt;excl" style="stroke: #666666; stroke-width: 1.0;"/><polygon fill="#666666" points="285.11,352.83,286.2802,343.0509,283.6366,348.052,278.6354,345.4084,285.11,352.83" style="stroke: #666666; stroke-width: 1.0;"/><text fill="#666666" font-family="sans-serif" font-size="13" font-weight="bold" lengthAdjust="spacingAndGlyphs" textLength="44" x="301" y="291.5684">Export</text><text fill="#666666" font-family="sans-serif" font-size="12" font-style="italic" lengthAdjust="spacingAndGlyphs" textLength="92" x="275" y="305.9121">[Data Download</text><text fill="#666666" font-family="sans-serif" font-size="12" font-style="italic" lengthAdjust="spacingAndGlyphs" textLength="65" x="290.5" y="320.0449">Integration]</text></g></svg>