<?xml version="1.0" encoding="UTF-8" standalone="no"?><svg xmlns="http://www.w3.org/2000/svg" xmlns:xlink="http://www.w3.org/1999/xlink" contentScriptType="application/ecmascript" contentStyleType="text/css" height="285px" preserveAspectRatio="none" style="width:1042px;height:285px;" version="1.1" viewBox="0 0 1042 285" width="1042px" zoomAndPan="magnify"><defs/><g><rect fill="#F8F8F8" height="34" style="stroke: #000000; stroke-width: 1.5;" width="76" x="442.5" y="117"/><text fill="#000000" font-family="Courier" font-size="14" lengthAdjust="spacingAndGlyphs" textLength="56" x="452.5" y="137.5547">Feature</text><rect fill="#F8F8F8" height="34" style="stroke: #000000; stroke-width: 1.5;" width="84" x="389.5" y="233"/><text fill="#000000" font-family="Courier" font-size="14" lengthAdjust="spacingAndGlyphs" textLength="64" x="399.5" y="253.5547">Optional</text><rect fill="#F8F8F8" height="34" style="stroke: #000000; stroke-width: 1.5;" width="84" x="508.5" y="233"/><text fill="#000000" font-family="Courier" font-size="14" lengthAdjust="spacingAndGlyphs" textLength="64" x="518.5" y="253.5547">Required</text><rect fill="#F8F8F8" height="34" style="stroke: #000000; stroke-width: 1.5;" width="76" x="254.5" y="117"/><text fill="#000000" font-family="Courier" font-size="14" lengthAdjust="spacingAndGlyphs" textLength="56" x="264.5" y="137.5547">Feature</text><path d="M6,122.5 L6,145.5 A0,0 0 0 0 6,145.5 L219,145.5 A0,0 0 0 0 219,145.5 L219,140.5 L254.33,134 L219,132.5 L219,132.5 L209,122.5 L6,122.5 A0,0 0 0 0 6,122.5 " fill="#ECECEC" style="stroke: #383838; stroke-width: 1.0;"/><path d="M209,122.5 L209,132.5 L219,132.5 L209,122.5 " fill="#ECECEC" style="stroke: #383838; stroke-width: 1.0;"/><text fill="#000000" font-family="Courier" font-size="13" lengthAdjust="spacingAndGlyphs" textLength="192" x="12" y="137.3008">Sub-features Combination</text><rect fill="#F8F8F8" height="34" style="stroke: #000000; stroke-width: 1.5;" width="124" x="71.5" y="233"/><text fill="#000000" font-family="Courier" font-size="14" lengthAdjust="spacingAndGlyphs" textLength="104" x="81.5" y="253.5547">Sub Feature 1</text><rect fill="#F8F8F8" height="34" style="stroke: #000000; stroke-width: 1.5;" width="124" x="230.5" y="233"/><text fill="#000000" font-family="Courier" font-size="14" lengthAdjust="spacingAndGlyphs" textLength="104" x="240.5" y="253.5547">Sub Feature 2</text><rect fill="#F8F8F8" height="34" style="stroke: #000000; stroke-width: 1.5;" width="76" x="721.5" y="117"/><text fill="#000000" font-family="Courier" font-size="14" lengthAdjust="spacingAndGlyphs" textLength="56" x="731.5" y="137.5547">Feature</text><path d="M833,122.5 L833,130 L797.8,134 L833,138 L833,145.5 A0,0 0 0 0 833,145.5 L1030,145.5 A0,0 0 0 0 1030,145.5 L1030,132.5 L1020,122.5 L833,122.5 A0,0 0 0 0 833,122.5 " fill="#ECECEC" style="stroke: #383838; stroke-width: 1.0;"/><path d="M1020,122.5 L1020,132.5 L1030,132.5 L1020,122.5 " fill="#ECECEC" style="stroke: #383838; stroke-width: 1.0;"/><text fill="#000000" font-family="Courier" font-size="13" lengthAdjust="spacingAndGlyphs" textLength="176" x="839" y="137.3008">Exclusive Sub-features</text><rect fill="#F8F8F8" height="48" style="stroke: #000000; stroke-width: 1.5;" width="116" x="852.5" y="226"/><text fill="#000000" font-family="Courier" font-size="14" lengthAdjust="spacingAndGlyphs" textLength="88" x="862.5" y="246.5547">Alternative</text><text fill="#000000" font-family="Courier" font-size="14" lengthAdjust="spacingAndGlyphs" textLength="96" x="862.5" y="260.5547">SubFeature 1</text><rect fill="#F8F8F8" height="48" style="stroke: #000000; stroke-width: 1.5;" width="116" x="701.5" y="226"/><text fill="#000000" font-family="Courier" font-size="14" lengthAdjust="spacingAndGlyphs" textLength="88" x="711.5" y="246.5547">Alternative</text><text fill="#000000" font-family="Courier" font-size="14" lengthAdjust="spacingAndGlyphs" textLength="96" x="711.5" y="260.5547">SubFeature 2</text><rect fill="#F8F8F8" height="34" style="stroke: #000000; stroke-width: 1.5;" width="76" x="442.5" y="8"/><text fill="#000000" font-family="Courier" font-size="14" lengthAdjust="spacingAndGlyphs" textLength="56" x="452.5" y="28.5547">Product</text><path d="M473.48,151.33 C464.82,171.48 450.08,205.77 440.57,227.9 " fill="none" id="A-&gt;B" style="stroke: #383838; stroke-width: 1.0;"/><ellipse cx="440.8735" cy="227.1851" fill="#FFFFFF" rx="6" ry="6" style="stroke: #383838; stroke-width: 1.5;"/><path d="M490.53,151.33 C502.95,171.57 524.13,206.06 537.71,228.18 " fill="none" id="A-&gt;C" style="stroke: #383838; stroke-width: 1.0;"/><ellipse cx="537.3502" cy="227.5871" fill="#383838" rx="6" ry="6" style="stroke: #383838; stroke-width: 1.5;"/><path d="M259.34,158.78 C228.29,181.04 182.77,213.68 155.83,232.99 " fill="none" id="E&lt;-F" style="stroke: #383838; stroke-width: 1.0;"/><polygon fill="#383838" points="270.06,151.09,262.8531,151.3363,260.3086,158.0836,267.5155,157.8373,270.06,151.09" style="stroke: #383838; stroke-width: 1.0;"/><path d="M292.5,164.41 C292.5,186.15 292.5,214.93 292.5,232.7 " fill="none" id="E&lt;-G" style="stroke: #383838; stroke-width: 1.0;"/><polygon fill="#383838" points="292.5,151.33,288.5,157.33,292.5,163.33,296.5,157.33,292.5,151.33" style="stroke: #383838; stroke-width: 1.0;"/><path d="M791.29,159 C817.38,178.7 854.11,206.43 879.89,225.89 " fill="none" id="H&lt;-I" style="stroke: #383838; stroke-width: 1.0;"/><polygon fill="#FFFFFF" points="780.81,151.09,783.1936,157.8958,790.3926,158.3132,788.009,151.5074,780.81,151.09" style="stroke: #383838; stroke-width: 1.0;"/><path d="M759.5,164.43 C759.5,183.61 759.5,208.26 759.5,225.99 " fill="none" id="H&lt;-J" style="stroke: #383838; stroke-width: 1.0;"/><polygon fill="#FFFFFF" points="759.5,151.33,755.5,157.33,759.5,163.33,763.5,157.33,759.5,151.33" style="stroke: #383838; stroke-width: 1.0;"/><path d="M176.79,232.96 C237.73,210.13 345.41,174.28 381.5,191 C398.14,198.71 411.25,214.98 419.87,228.49 " fill="none" id="F-&gt;B" style="stroke: #383838; stroke-width: 1.0; stroke-dasharray: 1.0,3.0;"/><polygon fill="#383838" points="422.62,232.95,421.2952,223.1907,419.9931,228.6956,414.4882,227.3936,422.62,232.95" style="stroke: #383838; stroke-width: 1.0;"/><text fill="#000000" font-family="Courier" font-size="13" lengthAdjust="spacingAndGlyphs" textLength="56" x="324.5" y="191.8008">require</text><path d="M597.77,250 C626.89,250 664.59,250 696.26,250 " fill="none" id="C-J" style="stroke: #383838; stroke-width: 1.0; stroke-dasharray: 1.0,3.0;"/><polygon fill="#383838" points="701.29,250,692.29,246,696.29,250,692.29,254,701.29,250" style="stroke: #383838; stroke-width: 1.0;"/><polygon fill="#383838" points="592.54,250,601.54,254,597.54,250,601.54,246,592.54,250" style="stroke: #383838; stroke-width: 1.0;"/><text fill="#000000" font-family="Courier" font-size="13" lengthAdjust="spacingAndGlyphs" textLength="72" x="611" y="242.8008">exclusive</text><path d="M480.5,42.25 C480.5,60.82 480.5,91.27 480.5,111.72 " fill="none" id="R-&gt;A" style="stroke: #383838; stroke-width: 1.0;"/><ellipse cx="480.5" cy="110.95" fill="#FFFFFF" rx="6" ry="6" style="stroke: #383838; stroke-width: 1.5;"/><path d="M452.35,42.02 C418.44,61.32 361.53,93.71 325.55,114.19 " fill="none" id="R-&gt;E" style="stroke: #383838; stroke-width: 1.0;"/><ellipse cx="326.0547" cy="113.9024" fill="#FFFFFF" rx="6" ry="6" style="stroke: #383838; stroke-width: 1.5;"/><text fill="#000000" font-family="Courier" font-size="13" lengthAdjust="spacingAndGlyphs" textLength="64" x="398.5" y="82.8008">optional</text><path d="M518.71,40.65 C570.43,60.49 662.44,95.78 716.52,116.52 " fill="none" id="R-&gt;H" style="stroke: #383838; stroke-width: 1.0;"/><ellipse cx="715.7055" cy="116.2076" fill="#383838" rx="6" ry="6" style="stroke: #383838; stroke-width: 1.5;"/><text fill="#000000" font-family="Courier" font-size="13" lengthAdjust="spacingAndGlyphs" textLength="64" x="637.5" y="82.8008">required</text></g></svg>