<?xml version="1.0" encoding="UTF-8" standalone="no"?><svg xmlns="http://www.w3.org/2000/svg" xmlns:xlink="http://www.w3.org/1999/xlink" contentScriptType="application/ecmascript" contentStyleType="text/css" height="253px" preserveAspectRatio="none" style="width:721px;height:253px;" version="1.1" viewBox="0 0 721 253" width="721px" zoomAndPan="magnify"><defs/><g><text fill="#000000" font-family="Courier" font-size="14" font-weight="bold" lengthAdjust="spacingAndGlyphs" textLength="160" x="279" y="20.5547">Example Process View</text><line style="stroke: #383838; stroke-width: 1.0; stroke-dasharray: 5.0,5.0;" x1="71" x2="71" y1="60" y2="215"/><line style="stroke: #383838; stroke-width: 1.0; stroke-dasharray: 5.0,5.0;" x1="199" x2="199" y1="60" y2="215"/><line style="stroke: #383838; stroke-width: 1.0; stroke-dasharray: 5.0,5.0;" x1="335" x2="335" y1="60" y2="215"/><line style="stroke: #383838; stroke-width: 1.0; stroke-dasharray: 5.0,5.0;" x1="491" x2="491" y1="60" y2="215"/><line style="stroke: #383838; stroke-width: 1.0; stroke-dasharray: 5.0,5.0;" x1="643" x2="643" y1="60" y2="215"/><rect fill="#F8F8F8" height="28" style="stroke: #383838; stroke-width: 1.5;" width="126" x="8" y="31"/><text fill="#000000" font-family="Courier" font-size="14" lengthAdjust="spacingAndGlyphs" textLength="112" x="15" y="48.5547">User Interface</text><rect fill="#F8F8F8" height="28" style="stroke: #383838; stroke-width: 1.5;" width="126" x="8" y="214"/><text fill="#000000" font-family="Courier" font-size="14" lengthAdjust="spacingAndGlyphs" textLength="112" x="15" y="231.5547">User Interface</text><rect fill="#F8F8F8" height="28" style="stroke: #383838; stroke-width: 1.5;" width="110" x="144" y="31"/><text fill="#000000" font-family="Courier" font-size="14" lengthAdjust="spacingAndGlyphs" textLength="96" x="151" y="48.5547">Music Player</text><rect fill="#F8F8F8" height="28" style="stroke: #383838; stroke-width: 1.5;" width="110" x="144" y="214"/><text fill="#000000" font-family="Courier" font-size="14" lengthAdjust="spacingAndGlyphs" textLength="96" x="151" y="231.5547">Music Player</text><rect fill="#F8F8F8" height="28" style="stroke: #383838; stroke-width: 1.5;" width="142" x="264" y="31"/><text fill="#000000" font-family="Courier" font-size="14" lengthAdjust="spacingAndGlyphs" textLength="128" x="271" y="48.5547">Songs Repository</text><rect fill="#F8F8F8" height="28" style="stroke: #383838; stroke-width: 1.5;" width="142" x="264" y="214"/><text fill="#000000" font-family="Courier" font-size="14" lengthAdjust="spacingAndGlyphs" textLength="128" x="271" y="231.5547">Songs Repository</text><rect fill="#F8F8F8" height="28" style="stroke: #383838; stroke-width: 1.5;" width="150" x="416" y="31"/><text fill="#000000" font-family="Courier" font-size="14" lengthAdjust="spacingAndGlyphs" textLength="136" x="423" y="48.5547">Customer Database</text><rect fill="#F8F8F8" height="28" style="stroke: #383838; stroke-width: 1.5;" width="150" x="416" y="214"/><text fill="#000000" font-family="Courier" font-size="14" lengthAdjust="spacingAndGlyphs" textLength="136" x="423" y="231.5547">Customer Database</text><rect fill="#F8F8F8" height="28" style="stroke: #383838; stroke-width: 1.5;" width="134" x="576" y="31"/><text fill="#000000" font-family="Courier" font-size="14" lengthAdjust="spacingAndGlyphs" textLength="120" x="583" y="48.5547">Payment Service</text><rect fill="#F8F8F8" height="28" style="stroke: #383838; stroke-width: 1.5;" width="134" x="576" y="214"/><text fill="#000000" font-family="Courier" font-size="14" lengthAdjust="spacingAndGlyphs" textLength="120" x="583" y="231.5547">Payment Service</text><polygon fill="#383838" points="323,85,333,89,323,93,327,89" style="stroke: #383838; stroke-width: 1.0;"/><line style="stroke: #383838; stroke-width: 1.0;" x1="71" x2="329" y1="89" y2="89"/><text fill="#000000" font-family="Courier" font-size="13" lengthAdjust="spacingAndGlyphs" textLength="96" x="78" y="83.8008">Browse Songs</text><polygon fill="#383838" points="479,112,489,116,479,120,483,116" style="stroke: #383838; stroke-width: 1.0;"/><line style="stroke: #383838; stroke-width: 1.0;" x1="71" x2="485" y1="116" y2="116"/><text fill="#000000" font-family="Courier" font-size="13" lengthAdjust="spacingAndGlyphs" textLength="64" x="78" y="110.8008">Buy Song</text><polygon fill="#383838" points="631,139,641,143,631,147,635,143" style="stroke: #383838; stroke-width: 1.0;"/><line style="stroke: #383838; stroke-width: 1.0;" x1="491" x2="637" y1="143" y2="143"/><text fill="#000000" font-family="Courier" font-size="13" lengthAdjust="spacingAndGlyphs" textLength="120" x="498" y="137.8008">Charge Customer</text><polygon fill="#383838" points="187,166,197,170,187,174,191,170" style="stroke: #383838; stroke-width: 1.0;"/><line style="stroke: #383838; stroke-width: 1.0;" x1="71" x2="193" y1="170" y2="170"/><text fill="#000000" font-family="Courier" font-size="13" lengthAdjust="spacingAndGlyphs" textLength="72" x="78" y="164.8008">Play Song</text><polygon fill="#383838" points="323,193,333,197,323,201,327,197" style="stroke: #383838; stroke-width: 1.0;"/><line style="stroke: #383838; stroke-width: 1.0;" x1="199" x2="329" y1="197" y2="197"/><text fill="#000000" font-family="Courier" font-size="13" lengthAdjust="spacingAndGlyphs" textLength="72" x="206" y="191.8008">Get Music</text></g></svg>