<?xml version="1.0" encoding="UTF-8" standalone="no"?><svg xmlns="http://www.w3.org/2000/svg" xmlns:xlink="http://www.w3.org/1999/xlink" contentScriptType="application/ecmascript" contentStyleType="text/css" height="940px" preserveAspectRatio="none" style="width:339px;height:940px;" version="1.1" viewBox="0 0 339 940" width="339px" zoomAndPan="magnify"><defs/><g><rect fill="#F8F8F8" height="300.3691" id="App" style="stroke: #383838; stroke-width: 1.5;" width="97" x="114" y="8"/><text fill="#000000" font-family="sans-serif" font-size="12" lengthAdjust="spacingAndGlyphs" textLength="24" x="150.5" y="24.6016">App</text><line style="stroke: #383838; stroke-width: 1.5;" x1="115" x2="210" y1="32.1328" y2="32.1328"/><text fill="#000000" font-family="sans-serif" font-size="11" lengthAdjust="spacingAndGlyphs" textLength="0" x="123" y="46.7676"/><text fill="#000000" font-family="sans-serif" font-size="11" lengthAdjust="spacingAndGlyphs" textLength="48" x="120" y="59.7227">requires:</text><line style="stroke: #383838; stroke-width: 1.0;" x1="115" x2="210" y1="66.043" y2="66.043"/><text fill="#000000" font-family="sans-serif" font-size="11" lengthAdjust="spacingAndGlyphs" textLength="61" x="120" y="80.6777">operations:</text><line style="stroke: #383838; stroke-width: 1.0; stroke-dasharray: 1.0,2.0;" x1="115" x2="210" y1="86.998" y2="86.998"/><text fill="#000000" font-family="sans-serif" font-size="11" lengthAdjust="spacingAndGlyphs" textLength="54" x="120" y="101.6328">print(PDF)</text><text fill="#000000" font-family="sans-serif" font-size="11" lengthAdjust="spacingAndGlyphs" textLength="44" x="120" y="114.5879">print(id)</text><text fill="#000000" font-family="sans-serif" font-size="11" lengthAdjust="spacingAndGlyphs" textLength="85" x="120" y="127.543">scheduleJob(PS)</text><text fill="#000000" font-family="sans-serif" font-size="11" lengthAdjust="spacingAndGlyphs" textLength="0" x="123" y="140.498"/><line style="stroke: #383838; stroke-width: 1.0;" x1="115" x2="210" y1="146.8184" y2="146.8184"/><text fill="#000000" font-family="sans-serif" font-size="11" lengthAdjust="spacingAndGlyphs" textLength="59" x="120" y="161.4531">properties:</text><line style="stroke: #383838; stroke-width: 1.0; stroke-dasharray: 1.0,2.0;" x1="115" x2="210" y1="167.7734" y2="167.7734"/><text fill="#000000" font-family="sans-serif" font-size="11" lengthAdjust="spacingAndGlyphs" textLength="58" x="120" y="182.4082">paper_size</text><text fill="#000000" font-family="sans-serif" font-size="11" lengthAdjust="spacingAndGlyphs" textLength="28" x="120" y="195.3633">color</text><text fill="#000000" font-family="sans-serif" font-size="11" lengthAdjust="spacingAndGlyphs" textLength="37" x="120" y="208.3184">duplex</text><text fill="#000000" font-family="sans-serif" font-size="11" lengthAdjust="spacingAndGlyphs" textLength="0" x="123" y="221.2734"/><line style="stroke: #383838; stroke-width: 1.0;" x1="115" x2="210" y1="227.5938" y2="227.5938"/><text fill="#000000" font-family="sans-serif" font-size="11" lengthAdjust="spacingAndGlyphs" textLength="38" x="120" y="242.2285">events:</text><line style="stroke: #383838; stroke-width: 1.0; stroke-dasharray: 1.0,2.0;" x1="115" x2="210" y1="248.5488" y2="248.5488"/><text fill="#000000" font-family="sans-serif" font-size="11" lengthAdjust="spacingAndGlyphs" textLength="70" x="120" y="263.1836">print_started</text><text fill="#000000" font-family="sans-serif" font-size="11" lengthAdjust="spacingAndGlyphs" textLength="59" x="120" y="276.1387">print_done</text><text fill="#000000" font-family="sans-serif" font-size="11" lengthAdjust="spacingAndGlyphs" textLength="0" x="123" y="289.0938"/><text fill="#000000" font-family="sans-serif" font-size="11" lengthAdjust="spacingAndGlyphs" textLength="0" x="123" y="302.0488"/><rect fill="#F8F8F8" height="112.9082" id="Driver" style="stroke: #383838; stroke-width: 1.5;" width="73" x="6" y="493"/><text fill="#000000" font-family="sans-serif" font-size="12" lengthAdjust="spacingAndGlyphs" textLength="35" x="25" y="509.6016">Driver</text><line style="stroke: #383838; stroke-width: 1.5;" x1="7" x2="78" y1="517.1328" y2="517.1328"/><text fill="#000000" font-family="sans-serif" font-size="11" lengthAdjust="spacingAndGlyphs" textLength="0" x="15" y="531.7676"/><text fill="#000000" font-family="sans-serif" font-size="11" lengthAdjust="spacingAndGlyphs" textLength="50" x="12" y="544.7227">provides:</text><line style="stroke: #383838; stroke-width: 1.0;" x1="7" x2="78" y1="551.043" y2="551.043"/><text fill="#000000" font-family="sans-serif" font-size="11" lengthAdjust="spacingAndGlyphs" textLength="61" x="12" y="565.6777">operations:</text><line style="stroke: #383838; stroke-width: 1.0; stroke-dasharray: 1.0,2.0;" x1="7" x2="78" y1="571.998" y2="571.998"/><text fill="#000000" font-family="sans-serif" font-size="11" lengthAdjust="spacingAndGlyphs" textLength="54" x="12" y="586.6328">print(PDF)</text><text fill="#000000" font-family="sans-serif" font-size="11" lengthAdjust="spacingAndGlyphs" textLength="0" x="15" y="599.5879"/><rect fill="#F8F8F8" height="201.6836" id="Spooler" style="stroke: #383838; stroke-width: 1.5;" width="97" x="114" y="448.5"/><text fill="#000000" font-family="sans-serif" font-size="12" lengthAdjust="spacingAndGlyphs" textLength="43" x="141" y="465.1016">Spooler</text><line style="stroke: #383838; stroke-width: 1.5;" x1="115" x2="210" y1="472.6328" y2="472.6328"/><text fill="#000000" font-family="sans-serif" font-size="11" lengthAdjust="spacingAndGlyphs" textLength="0" x="123" y="487.2676"/><text fill="#000000" font-family="sans-serif" font-size="11" lengthAdjust="spacingAndGlyphs" textLength="50" x="120" y="500.2227">provides:</text><line style="stroke: #383838; stroke-width: 1.0;" x1="115" x2="210" y1="506.543" y2="506.543"/><text fill="#000000" font-family="sans-serif" font-size="11" lengthAdjust="spacingAndGlyphs" textLength="61" x="120" y="521.1777">operations:</text><line style="stroke: #383838; stroke-width: 1.0; stroke-dasharray: 1.0,2.0;" x1="115" x2="210" y1="527.498" y2="527.498"/><text fill="#000000" font-family="sans-serif" font-size="11" lengthAdjust="spacingAndGlyphs" textLength="85" x="120" y="542.1328">scheduleJob(PS)</text><text fill="#000000" font-family="sans-serif" font-size="11" lengthAdjust="spacingAndGlyphs" textLength="0" x="123" y="555.0879"/><line style="stroke: #383838; stroke-width: 1.0;" x1="115" x2="210" y1="561.4082" y2="561.4082"/><line style="stroke: #383838; stroke-width: 1.0;" x1="115" x2="210" y1="563.4082" y2="563.4082"/><text fill="#000000" font-family="sans-serif" font-size="11" lengthAdjust="spacingAndGlyphs" textLength="0" x="123" y="576.043"/><text fill="#000000" font-family="sans-serif" font-size="11" lengthAdjust="spacingAndGlyphs" textLength="48" x="120" y="588.998">requires:</text><line style="stroke: #383838; stroke-width: 1.0;" x1="115" x2="210" y1="595.3184" y2="595.3184"/><text fill="#000000" font-family="sans-serif" font-size="11" lengthAdjust="spacingAndGlyphs" textLength="61" x="120" y="609.9531">operations:</text><line style="stroke: #383838; stroke-width: 1.0; stroke-dasharray: 1.0,2.0;" x1="115" x2="210" y1="616.2734" y2="616.2734"/><text fill="#000000" font-family="sans-serif" font-size="11" lengthAdjust="spacingAndGlyphs" textLength="44" x="120" y="630.9082">post(PS)</text><text fill="#000000" font-family="sans-serif" font-size="11" lengthAdjust="spacingAndGlyphs" textLength="0" x="123" y="643.8633"/><rect fill="#F8F8F8" height="138.8184" id="Queue" style="stroke: #383838; stroke-width: 1.5;" width="73" x="188" y="791"/><text fill="#000000" font-family="sans-serif" font-size="12" lengthAdjust="spacingAndGlyphs" textLength="37" x="206" y="807.6016">Queue</text><line style="stroke: #383838; stroke-width: 1.5;" x1="189" x2="260" y1="815.1328" y2="815.1328"/><text fill="#000000" font-family="sans-serif" font-size="11" lengthAdjust="spacingAndGlyphs" textLength="0" x="197" y="829.7676"/><text fill="#000000" font-family="sans-serif" font-size="11" lengthAdjust="spacingAndGlyphs" textLength="50" x="194" y="842.7227">provides:</text><line style="stroke: #383838; stroke-width: 1.0;" x1="189" x2="260" y1="849.043" y2="849.043"/><text fill="#000000" font-family="sans-serif" font-size="11" lengthAdjust="spacingAndGlyphs" textLength="61" x="194" y="863.6777">operations:</text><line style="stroke: #383838; stroke-width: 1.0; stroke-dasharray: 1.0,2.0;" x1="189" x2="260" y1="869.998" y2="869.998"/><text fill="#000000" font-family="sans-serif" font-size="11" lengthAdjust="spacingAndGlyphs" textLength="44" x="194" y="884.6328">post(PS)</text><text fill="#000000" font-family="sans-serif" font-size="11" lengthAdjust="spacingAndGlyphs" textLength="35" x="194" y="897.5879">get(id)</text><text fill="#000000" font-family="sans-serif" font-size="11" lengthAdjust="spacingAndGlyphs" textLength="50" x="194" y="910.543">delete(id)</text><text fill="#000000" font-family="sans-serif" font-size="11" lengthAdjust="spacingAndGlyphs" textLength="0" x="197" y="923.498"/><rect fill="#F8F8F8" height="363.2344" id="Printer" style="stroke: #383838; stroke-width: 1.5;" width="82" x="246.5" y="368"/><text fill="#000000" font-family="sans-serif" font-size="12" lengthAdjust="spacingAndGlyphs" textLength="38" x="268.5" y="384.6016">Printer</text><line style="stroke: #383838; stroke-width: 1.5;" x1="247.5" x2="327.5" y1="392.1328" y2="392.1328"/><text fill="#000000" font-family="sans-serif" font-size="11" lengthAdjust="spacingAndGlyphs" textLength="0" x="255.5" y="406.7676"/><text fill="#000000" font-family="sans-serif" font-size="11" lengthAdjust="spacingAndGlyphs" textLength="50" x="252.5" y="419.7227">provides:</text><line style="stroke: #383838; stroke-width: 1.0;" x1="247.5" x2="327.5" y1="426.043" y2="426.043"/><text fill="#000000" font-family="sans-serif" font-size="11" lengthAdjust="spacingAndGlyphs" textLength="61" x="252.5" y="440.6777">operations:</text><line style="stroke: #383838; stroke-width: 1.0; stroke-dasharray: 1.0,2.0;" x1="247.5" x2="327.5" y1="446.998" y2="446.998"/><text fill="#000000" font-family="sans-serif" font-size="11" lengthAdjust="spacingAndGlyphs" textLength="44" x="252.5" y="461.6328">print(id)</text><text fill="#000000" font-family="sans-serif" font-size="11" lengthAdjust="spacingAndGlyphs" textLength="0" x="255.5" y="474.5879"/><line style="stroke: #383838; stroke-width: 1.0;" x1="247.5" x2="327.5" y1="480.9082" y2="480.9082"/><text fill="#000000" font-family="sans-serif" font-size="11" lengthAdjust="spacingAndGlyphs" textLength="59" x="252.5" y="495.543">properties:</text><line style="stroke: #383838; stroke-width: 1.0; stroke-dasharray: 1.0,2.0;" x1="247.5" x2="327.5" y1="501.8633" y2="501.8633"/><text fill="#000000" font-family="sans-serif" font-size="11" lengthAdjust="spacingAndGlyphs" textLength="58" x="252.5" y="516.498">paper_size</text><text fill="#000000" font-family="sans-serif" font-size="11" lengthAdjust="spacingAndGlyphs" textLength="28" x="252.5" y="529.4531">color</text><text fill="#000000" font-family="sans-serif" font-size="11" lengthAdjust="spacingAndGlyphs" textLength="37" x="252.5" y="542.4082">duplex</text><text fill="#000000" font-family="sans-serif" font-size="11" lengthAdjust="spacingAndGlyphs" textLength="0" x="255.5" y="555.3633"/><line style="stroke: #383838; stroke-width: 1.0;" x1="247.5" x2="327.5" y1="561.6836" y2="561.6836"/><text fill="#000000" font-family="sans-serif" font-size="11" lengthAdjust="spacingAndGlyphs" textLength="38" x="252.5" y="576.3184">events:</text><line style="stroke: #383838; stroke-width: 1.0; stroke-dasharray: 1.0,2.0;" x1="247.5" x2="327.5" y1="582.6387" y2="582.6387"/><text fill="#000000" font-family="sans-serif" font-size="11" lengthAdjust="spacingAndGlyphs" textLength="70" x="252.5" y="597.2734">print_started</text><text fill="#000000" font-family="sans-serif" font-size="11" lengthAdjust="spacingAndGlyphs" textLength="59" x="252.5" y="610.2285">print_done</text><text fill="#000000" font-family="sans-serif" font-size="11" lengthAdjust="spacingAndGlyphs" textLength="0" x="255.5" y="623.1836"/><line style="stroke: #383838; stroke-width: 1.0;" x1="247.5" x2="327.5" y1="629.5039" y2="629.5039"/><line style="stroke: #383838; stroke-width: 1.0;" x1="247.5" x2="327.5" y1="631.5039" y2="631.5039"/><text fill="#000000" font-family="sans-serif" font-size="11" lengthAdjust="spacingAndGlyphs" textLength="0" x="255.5" y="644.1387"/><text fill="#000000" font-family="sans-serif" font-size="11" lengthAdjust="spacingAndGlyphs" textLength="48" x="252.5" y="657.0938">requires:</text><line style="stroke: #383838; stroke-width: 1.0;" x1="247.5" x2="327.5" y1="663.4141" y2="663.4141"/><text fill="#000000" font-family="sans-serif" font-size="11" lengthAdjust="spacingAndGlyphs" textLength="61" x="252.5" y="678.0488">operations:</text><line style="stroke: #383838; stroke-width: 1.0; stroke-dasharray: 1.0,2.0;" x1="247.5" x2="327.5" y1="684.3691" y2="684.3691"/><text fill="#000000" font-family="sans-serif" font-size="11" lengthAdjust="spacingAndGlyphs" textLength="35" x="252.5" y="699.0039">get(id)</text><text fill="#000000" font-family="sans-serif" font-size="11" lengthAdjust="spacingAndGlyphs" textLength="50" x="252.5" y="711.959">delete(id)</text><text fill="#000000" font-family="sans-serif" font-size="11" lengthAdjust="spacingAndGlyphs" textLength="0" x="255.5" y="724.9141"/><path d="M115.08,308.19 C108.79,328.28 102.45,348.63 96.5,368 C83.67,409.74 69.53,457.03 58.95,492.73 " fill="none" id="App-Driver" style="stroke: #383838; stroke-width: 1.0;"/><path d="M85.6881,427.8929 A10,10 0 0 0 72.1442 423.8232" fill="#FFFFFF" style="stroke: #383838; stroke-width: 1.5;"/><ellipse cx="76.8813" cy="432.63" fill="#FFFFFF" rx="6" ry="6" style="stroke: #383838; stroke-width: 1.5;"/><path d="M162.5,308.2 C162.5,355.1 162.5,405.73 162.5,448.37 " fill="none" id="App-Spooler" style="stroke: #383838; stroke-width: 1.0;"/><path d="M169.5711,372.8114 A10,10 0 0 0 155.4289 372.8114" fill="#FFFFFF" style="stroke: #383838; stroke-width: 1.5;"/><ellipse cx="162.5" cy="379.8825" fill="#FFFFFF" rx="6" ry="6" style="stroke: #383838; stroke-width: 1.5;"/><path d="M210.38,308.2 C222.26,345.23 234.89,384.58 246.42,420.49 " fill="none" id="App-Printer" style="stroke: #383838; stroke-width: 1.0;"/><path d="M233.1031,355.8713 A10,10 0 0 0 219.6375 360.1932" fill="#FFFFFF" style="stroke: #383838; stroke-width: 1.5;"/><ellipse cx="228.5313" cy="364.765" fill="#FFFFFF" rx="6" ry="6" style="stroke: #383838; stroke-width: 1.5;"/><path d="M250.67,731.14 C246.36,752.27 242.19,772.73 238.49,790.87 " fill="none" id="Printer-Queue" style="stroke: #383838; stroke-width: 1.0;"/><path d="M252.6924,756.6104 A10,10 0 0 0 238.8354 753.7851" fill="#FFFFFF" style="stroke: #383838; stroke-width: 1.5;"/><ellipse cx="244.3513" cy="762.1263" fill="#FFFFFF" rx="6" ry="6" style="stroke: #383838; stroke-width: 1.5;"/><path d="M182.63,650.82 C191.82,696.64 202.48,749.74 210.74,790.9 " fill="none" id="Spooler-Queue" style="stroke: #383838; stroke-width: 1.0;"/><path d="M202.5752,714.2833 A10,10 0 0 0 188.7095 717.066" fill="#FFFFFF" style="stroke: #383838; stroke-width: 1.5;"/><ellipse cx="197.0338" cy="722.6075" fill="#FFFFFF" rx="6" ry="6" style="stroke: #383838; stroke-width: 1.5;"/></g></svg>